<svg width="373" height="156" viewBox="0 0 373 156" fill="none" xmlns="http://www.w3.org/2000/svg">
<g filter="url(#filter0_dd_1_356)">
<rect x="10" y="6" width="353" height="136" rx="12" fill="white" shape-rendering="crispEdges"/>
<path d="M35.7386 29.3636H37.8295V37.5455C37.8258 38.2955 37.6667 38.9413 37.3523 39.483C37.0379 40.0208 36.5985 40.4356 36.0341 40.7273C35.4735 41.0152 34.8201 41.1591 34.0739 41.1591C33.392 41.1591 32.7784 41.0379 32.233 40.7955C31.6913 40.5492 31.2614 40.1856 30.9432 39.7045C30.625 39.2235 30.4659 38.625 30.4659 37.9091H32.5625C32.5663 38.2235 32.6345 38.4943 32.767 38.7216C32.9034 38.9489 33.0909 39.1231 33.3295 39.2443C33.5682 39.3655 33.8428 39.4261 34.1534 39.4261C34.4905 39.4261 34.7765 39.3561 35.0114 39.2159C35.2462 39.072 35.4242 38.8598 35.5455 38.5795C35.6705 38.2992 35.7348 37.9545 35.7386 37.5455V29.3636ZM42.5369 41.1761C41.9839 41.1761 41.4858 41.0777 41.0426 40.8807C40.6032 40.6799 40.2547 40.3845 39.9972 39.9943C39.7434 39.6042 39.6165 39.1231 39.6165 38.5511C39.6165 38.0587 39.7074 37.6515 39.8892 37.3295C40.071 37.0076 40.3191 36.75 40.6335 36.5568C40.9479 36.3636 41.3021 36.2178 41.696 36.1193C42.0938 36.017 42.5047 35.9432 42.929 35.8977C43.4403 35.8447 43.8551 35.7973 44.1733 35.7557C44.4915 35.7102 44.7225 35.642 44.8665 35.5511C45.0142 35.4564 45.0881 35.3106 45.0881 35.1136V35.0795C45.0881 34.6515 44.9612 34.3201 44.7074 34.0852C44.4536 33.8504 44.0881 33.733 43.6108 33.733C43.107 33.733 42.7074 33.8428 42.4119 34.0625C42.1203 34.2822 41.9233 34.5417 41.821 34.8409L39.9006 34.5682C40.0521 34.0379 40.3021 33.5947 40.6506 33.2386C40.9991 32.8788 41.4252 32.6098 41.929 32.4318C42.4328 32.25 42.9896 32.1591 43.5994 32.1591C44.0199 32.1591 44.4384 32.2083 44.8551 32.3068C45.2718 32.4053 45.6525 32.5682 45.9972 32.7955C46.3419 33.0189 46.6184 33.3239 46.8267 33.7102C47.0388 34.0966 47.1449 34.5795 47.1449 35.1591V41H45.1676V39.8011H45.0994C44.9744 40.0436 44.7983 40.2708 44.571 40.483C44.3475 40.6913 44.0653 40.8598 43.7244 40.9886C43.3873 41.1136 42.9915 41.1761 42.5369 41.1761ZM43.071 39.6648C43.4839 39.6648 43.8419 39.5833 44.1449 39.4205C44.4479 39.2538 44.6809 39.0341 44.8438 38.7614C45.0104 38.4886 45.0938 38.1913 45.0938 37.8693V36.8409C45.0294 36.8939 44.9195 36.9432 44.7642 36.9886C44.6127 37.0341 44.4422 37.0739 44.2528 37.108C44.0634 37.142 43.8759 37.1723 43.6903 37.1989C43.5047 37.2254 43.3438 37.2481 43.2074 37.267C42.9006 37.3087 42.6259 37.3769 42.3835 37.4716C42.1411 37.5663 41.9498 37.6989 41.8097 37.8693C41.6695 38.036 41.5994 38.2519 41.5994 38.517C41.5994 38.8958 41.7377 39.1818 42.0142 39.375C42.2907 39.5682 42.643 39.6648 43.071 39.6648ZM53.0199 41.1705C52.1487 41.1705 51.4006 40.9792 50.7756 40.5966C50.1544 40.214 49.6752 39.6856 49.3381 39.0114C49.0047 38.3333 48.8381 37.553 48.8381 36.6705C48.8381 35.7841 49.0085 35.0019 49.3494 34.3239C49.6903 33.642 50.1714 33.1117 50.7926 32.733C51.4176 32.3504 52.1563 32.1591 53.0085 32.1591C53.7169 32.1591 54.3438 32.2898 54.8892 32.5511C55.4384 32.8087 55.8759 33.1742 56.2017 33.6477C56.5275 34.1174 56.7131 34.6667 56.7585 35.2955H54.7926C54.7131 34.875 54.5237 34.5246 54.2244 34.2443C53.929 33.9602 53.5331 33.8182 53.0369 33.8182C52.6165 33.8182 52.2472 33.9318 51.929 34.1591C51.6108 34.3826 51.3627 34.7045 51.1847 35.125C51.0104 35.5455 50.9233 36.0492 50.9233 36.6364C50.9233 37.2311 51.0104 37.7424 51.1847 38.1705C51.3589 38.5947 51.6032 38.9223 51.9176 39.1534C52.2358 39.3807 52.6089 39.4943 53.0369 39.4943C53.34 39.4943 53.6108 39.4375 53.8494 39.3239C54.0919 39.2064 54.2945 39.0379 54.4574 38.8182C54.6203 38.5985 54.732 38.3314 54.7926 38.017H56.7585C56.7093 38.6345 56.5275 39.1818 56.2131 39.6591C55.8987 40.1326 55.4706 40.5038 54.929 40.7727C54.3873 41.0379 53.7509 41.1705 53.0199 41.1705ZM60.3224 38.2614L60.3168 35.7784H60.6463L63.7827 32.2727H66.1861L62.3281 36.5682H61.902L60.3224 38.2614ZM58.4474 41V29.3636H60.5043V41H58.4474ZM63.9247 41L61.0838 37.0284L62.4702 35.5795L66.3849 41H63.9247ZM71.6165 41V29.3636H79.071V31.1307H73.7244V34.2898H78.5597V36.0568H73.7244V41H71.6165Z" fill="#19191A"/>
<path d="M89.0387 40.5V31.0455H94.9663V32.2734H90.4652V35.1541H94.657V36.3775H90.4652V39.272H95.0217V40.5H89.0387ZM97.8504 33.4091L99.4154 36.1697L100.994 33.4091H102.504L100.293 36.9545L102.522 40.5H101.013L99.4154 37.8501L97.8227 40.5H96.3085L98.5152 36.9545L96.3362 33.4091H97.8504ZM107.472 40.5V31.0455H110.935C111.606 31.0455 112.161 31.1562 112.601 31.3778C113.041 31.5964 113.371 31.8933 113.589 32.2688C113.808 32.6412 113.917 33.0613 113.917 33.5291C113.917 33.9231 113.845 34.2554 113.7 34.5263C113.555 34.794 113.361 35.0095 113.118 35.1726C112.878 35.3326 112.614 35.4496 112.324 35.5234V35.6158C112.638 35.6312 112.944 35.7327 113.243 35.9205C113.545 36.1051 113.794 36.3683 113.991 36.7099C114.188 37.0515 114.286 37.467 114.286 37.9563C114.286 38.4395 114.172 38.8735 113.945 39.2582C113.72 39.6398 113.372 39.9429 112.901 40.1676C112.43 40.3892 111.829 40.5 111.096 40.5H107.472ZM108.899 39.2766H110.958C111.641 39.2766 112.13 39.1443 112.426 38.8796C112.721 38.6149 112.869 38.2841 112.869 37.8871C112.869 37.5885 112.794 37.3146 112.643 37.0653C112.492 36.8161 112.277 36.6175 111.996 36.4698C111.719 36.3221 111.39 36.2482 111.009 36.2482H108.899V39.2766ZM108.899 35.1357H110.81C111.13 35.1357 111.418 35.0741 111.673 34.951C111.932 34.8279 112.136 34.6555 112.287 34.4339C112.441 34.2093 112.518 33.9446 112.518 33.6399C112.518 33.2491 112.381 32.9213 112.107 32.6566C111.833 32.3919 111.413 32.2596 110.847 32.2596H108.899V35.1357ZM117.248 31.0455V40.5H115.867V31.0455H117.248ZM121.168 40.657C120.719 40.657 120.313 40.5739 119.949 40.4077C119.586 40.2384 119.299 39.9937 119.086 39.6737C118.877 39.3536 118.772 38.9612 118.772 38.4964C118.772 38.0964 118.849 37.767 119.003 37.5085C119.157 37.25 119.365 37.0453 119.626 36.8945C119.888 36.7437 120.18 36.6299 120.503 36.5529C120.827 36.476 121.156 36.4175 121.491 36.3775C121.916 36.3282 122.261 36.2882 122.525 36.2575C122.79 36.2236 122.983 36.1697 123.103 36.0959C123.223 36.022 123.283 35.902 123.283 35.7358V35.7035C123.283 35.3003 123.169 34.9879 122.941 34.7663C122.716 34.5447 122.381 34.4339 121.935 34.4339C121.47 34.4339 121.104 34.537 120.836 34.7433C120.571 34.9464 120.388 35.1726 120.286 35.4219L118.989 35.1264C119.143 34.6955 119.368 34.3478 119.663 34.0831C119.962 33.8153 120.305 33.6214 120.693 33.5014C121.081 33.3783 121.488 33.3168 121.916 33.3168C122.199 33.3168 122.499 33.3506 122.816 33.4183C123.136 33.483 123.435 33.603 123.712 33.7784C123.992 33.9538 124.221 34.2047 124.4 34.5309C124.578 34.854 124.668 35.2741 124.668 35.7912V40.5H123.32V39.5305H123.264C123.175 39.709 123.041 39.8845 122.862 40.0568C122.684 40.2292 122.455 40.3723 122.175 40.4862C121.895 40.6 121.559 40.657 121.168 40.657ZM121.468 39.549C121.85 39.549 122.176 39.4736 122.447 39.3228C122.721 39.172 122.929 38.975 123.07 38.7319C123.215 38.4857 123.287 38.2225 123.287 37.9425V37.0284C123.238 37.0777 123.143 37.1238 123.001 37.1669C122.862 37.2069 122.704 37.2423 122.525 37.2731C122.347 37.3008 122.173 37.3269 122.004 37.3516C121.835 37.3731 121.693 37.3916 121.579 37.407C121.311 37.4408 121.067 37.4978 120.845 37.5778C120.627 37.6578 120.451 37.7732 120.319 37.924C120.19 38.0717 120.125 38.2687 120.125 38.5149C120.125 38.8565 120.251 39.1151 120.503 39.2905C120.756 39.4628 121.077 39.549 121.468 39.549ZM129.493 40.6431C128.807 40.6431 128.216 40.4877 127.72 40.1768C127.228 39.8629 126.849 39.4305 126.585 38.8796C126.32 38.3287 126.188 37.6978 126.188 36.9869C126.188 36.2667 126.323 35.6312 126.594 35.0803C126.865 34.5263 127.246 34.0939 127.739 33.783C128.231 33.4722 128.811 33.3168 129.479 33.3168C130.018 33.3168 130.498 33.4168 130.919 33.6168C131.341 33.8138 131.681 34.0908 131.94 34.4478C132.201 34.8048 132.357 35.2218 132.406 35.6989H131.062C130.989 35.3665 130.819 35.0803 130.555 34.8402C130.293 34.6001 129.942 34.4801 129.502 34.4801C129.117 34.4801 128.78 34.5817 128.491 34.7848C128.205 34.9848 127.982 35.2711 127.822 35.6435C127.662 36.0128 127.582 36.4498 127.582 36.9545C127.582 37.4716 127.66 37.9179 127.817 38.2933C127.974 38.6688 128.196 38.9596 128.482 39.1658C128.771 39.372 129.111 39.4751 129.502 39.4751C129.764 39.4751 130.001 39.4274 130.213 39.332C130.429 39.2335 130.609 39.0935 130.753 38.9119C130.901 38.7304 131.004 38.5118 131.062 38.2564H132.406C132.357 38.715 132.207 39.1243 131.958 39.4844C131.709 39.8445 131.375 40.1276 130.956 40.3338C130.541 40.54 130.053 40.6431 129.493 40.6431ZM135.152 38.0948L135.142 36.4098H135.382L138.208 33.4091H139.86L136.638 36.8253H136.421L135.152 38.0948ZM133.882 40.5V31.0455H135.262V40.5H133.882ZM138.36 40.5L135.821 37.13L136.772 36.1651L140.054 40.5H138.36ZM141.118 40.5V33.4091H142.453V34.5355H142.526C142.656 34.1539 142.883 33.8538 143.21 33.6353C143.539 33.4137 143.911 33.3029 144.327 33.3029C144.413 33.3029 144.515 33.306 144.631 33.3121C144.752 33.3183 144.845 33.326 144.913 33.3352V34.6555C144.858 34.6402 144.759 34.6232 144.618 34.6048C144.476 34.5832 144.334 34.5724 144.193 34.5724C143.867 34.5724 143.576 34.6417 143.32 34.7802C143.068 34.9156 142.868 35.1049 142.72 35.348C142.573 35.5881 142.499 35.862 142.499 36.1697V40.5H141.118ZM148.841 40.6431C148.176 40.6431 147.596 40.4908 147.1 40.1861C146.605 39.8814 146.22 39.4551 145.946 38.9073C145.672 38.3595 145.535 37.7193 145.535 36.9869C145.535 36.2513 145.672 35.6081 145.946 35.0572C146.22 34.5063 146.605 34.0785 147.1 33.7738C147.596 33.4691 148.176 33.3168 148.841 33.3168C149.505 33.3168 150.085 33.4691 150.581 33.7738C151.076 34.0785 151.461 34.5063 151.735 35.0572C152.009 35.6081 152.146 36.2513 152.146 36.9869C152.146 37.7193 152.009 38.3595 151.735 38.9073C151.461 39.4551 151.076 39.8814 150.581 40.1861C150.085 40.4908 149.505 40.6431 148.841 40.6431ZM148.845 39.4844C149.276 39.4844 149.633 39.3705 149.916 39.1428C150.199 38.915 150.409 38.6119 150.544 38.2333C150.683 37.8548 150.752 37.4377 150.752 36.9822C150.752 36.5298 150.683 36.1143 150.544 35.7358C150.409 35.3542 150.199 35.0479 149.916 34.8171C149.633 34.5863 149.276 34.4709 148.845 34.4709C148.411 34.4709 148.051 34.5863 147.765 34.8171C147.482 35.0479 147.271 35.3542 147.132 35.7358C146.997 36.1143 146.929 36.5298 146.929 36.9822C146.929 37.4377 146.997 37.8548 147.132 38.2333C147.271 38.6119 147.482 38.915 147.765 39.1428C148.051 39.3705 148.411 39.4844 148.845 39.4844ZM156.674 40.6431C155.987 40.6431 155.396 40.4877 154.901 40.1768C154.408 39.8629 154.03 39.4305 153.765 38.8796C153.501 38.3287 153.368 37.6978 153.368 36.9869C153.368 36.2667 153.504 35.6312 153.774 35.0803C154.045 34.5263 154.427 34.0939 154.919 33.783C155.412 33.4722 155.992 33.3168 156.66 33.3168C157.198 33.3168 157.678 33.4168 158.1 33.6168C158.522 33.8138 158.862 34.0908 159.12 34.4478C159.382 34.8048 159.537 35.2218 159.587 35.6989H158.243C158.169 35.3665 158 35.0803 157.735 34.8402C157.474 34.6001 157.123 34.4801 156.683 34.4801C156.298 34.4801 155.961 34.5817 155.672 34.7848C155.386 34.9848 155.162 35.2711 155.002 35.6435C154.842 36.0128 154.762 36.4498 154.762 36.9545C154.762 37.4716 154.841 37.9179 154.998 38.2933C155.155 38.6688 155.376 38.9596 155.663 39.1658C155.952 39.372 156.292 39.4751 156.683 39.4751C156.944 39.4751 157.181 39.4274 157.394 39.332C157.609 39.2335 157.789 39.0935 157.934 38.9119C158.082 38.7304 158.185 38.5118 158.243 38.2564H159.587C159.537 38.715 159.388 39.1243 159.139 39.4844C158.889 39.8445 158.556 40.1276 158.137 40.3338C157.722 40.54 157.234 40.6431 156.674 40.6431ZM162.332 38.0948L162.323 36.4098H162.563L165.388 33.4091H167.041L163.819 36.8253H163.602L162.332 38.0948ZM161.063 40.5V31.0455H162.443V40.5H161.063ZM165.541 40.5L163.002 37.13L163.953 36.1651L167.235 40.5H165.541ZM171.85 40.5V31.0455H175.22C175.956 31.0455 176.565 31.1793 177.048 31.4471C177.532 31.7148 177.893 32.0811 178.133 32.5458C178.373 33.0075 178.493 33.5276 178.493 34.1062C178.493 34.6879 178.372 35.2111 178.129 35.6758C177.889 36.1374 177.525 36.5037 177.039 36.7745C176.556 37.0423 175.948 37.1761 175.216 37.1761H172.898V35.9666H175.086C175.551 35.9666 175.928 35.8866 176.217 35.7266C176.507 35.5634 176.719 35.3419 176.854 35.0618C176.99 34.7817 177.058 34.4632 177.058 34.1062C177.058 33.7492 176.99 33.4322 176.854 33.1552C176.719 32.8782 176.505 32.6612 176.213 32.5043C175.924 32.3473 175.542 32.2688 175.068 32.2688H173.277V40.5H171.85ZM180.166 31.0455H181.897L184.907 38.3949H185.018L188.028 31.0455H189.759V40.5H188.401V33.6584H188.314L185.525 40.4862H184.399L181.611 33.6538H181.523V40.5H180.166V31.0455Z" fill="#96979A"/>
<path d="M30.8068 72V70.9091C30.8068 70.5871 30.8674 70.2481 30.9886 69.892C31.1098 69.536 31.2784 69.1951 31.4943 68.8693C31.7102 68.5436 31.964 68.2652 32.2557 68.0341L33.0966 68.6364C32.8655 68.9735 32.6686 69.3258 32.5057 69.6932C32.3428 70.0606 32.2614 70.4602 32.2614 70.892V72H30.8068ZM33.7045 72V70.9091C33.7045 70.5871 33.7652 70.2481 33.8864 69.892C34.0076 69.536 34.1761 69.1951 34.392 68.8693C34.608 68.5436 34.8617 68.2652 35.1534 68.0341L35.9943 68.6364C35.7633 68.9735 35.5663 69.3258 35.4034 69.6932C35.2405 70.0606 35.1591 70.4602 35.1591 70.892V72H33.7045ZM37.5909 80V68.3636H39.3466V78.4886H44.6193V80H37.5909ZM50.1619 80.1761C49.3438 80.1761 48.6297 79.9886 48.0199 79.6136C47.41 79.2386 46.9366 78.714 46.5994 78.0398C46.2623 77.3655 46.0938 76.5777 46.0938 75.6761C46.0938 74.7708 46.2623 73.9792 46.5994 73.3011C46.9366 72.6231 47.41 72.0966 48.0199 71.7216C48.6297 71.3466 49.3438 71.1591 50.1619 71.1591C50.9801 71.1591 51.6941 71.3466 52.304 71.7216C52.9138 72.0966 53.3873 72.6231 53.7244 73.3011C54.0616 73.9792 54.2301 74.7708 54.2301 75.6761C54.2301 76.5777 54.0616 77.3655 53.7244 78.0398C53.3873 78.714 52.9138 79.2386 52.304 79.6136C51.6941 79.9886 50.9801 80.1761 50.1619 80.1761ZM50.1676 78.75C50.6979 78.75 51.1373 78.6098 51.4858 78.3295C51.8343 78.0492 52.0919 77.6761 52.2585 77.2102C52.429 76.7443 52.5142 76.2311 52.5142 75.6705C52.5142 75.1136 52.429 74.6023 52.2585 74.1364C52.0919 73.6667 51.8343 73.2898 51.4858 73.0057C51.1373 72.7216 50.6979 72.5795 50.1676 72.5795C49.6335 72.5795 49.1903 72.7216 48.8381 73.0057C48.4896 73.2898 48.2301 73.6667 48.0597 74.1364C47.893 74.6023 47.8097 75.1136 47.8097 75.6705C47.8097 76.2311 47.893 76.7443 48.0597 77.2102C48.2301 77.6761 48.4896 78.0492 48.8381 78.3295C49.1903 78.6098 49.6335 78.75 50.1676 78.75ZM63.2955 71.2727L60.1307 80H58.3125L55.142 71.2727H56.9659L59.1761 77.9886H59.267L61.4716 71.2727H63.2955ZM68.3565 80.1761C67.4967 80.1761 66.7562 79.9924 66.1349 79.625C65.5175 79.2538 65.0402 78.733 64.7031 78.0625C64.3698 77.3883 64.2031 76.5985 64.2031 75.6932C64.2031 74.7992 64.3698 74.0114 64.7031 73.3295C65.0402 72.6477 65.5099 72.1155 66.1122 71.733C66.7183 71.3504 67.4266 71.1591 68.2372 71.1591C68.7296 71.1591 69.2069 71.2405 69.669 71.4034C70.1312 71.5663 70.5459 71.822 70.9134 72.1705C71.2808 72.5189 71.5705 72.9716 71.7827 73.5284C71.9948 74.0814 72.1009 74.7538 72.1009 75.5455V76.1477H65.1634V74.875H70.4361C70.4361 74.428 70.3452 74.0322 70.1634 73.6875C69.9815 73.339 69.7259 73.0644 69.3963 72.8636C69.0705 72.6629 68.688 72.5625 68.2486 72.5625C67.7713 72.5625 67.3546 72.6799 66.9986 72.9148C66.6463 73.1458 66.3736 73.4489 66.1804 73.8239C65.991 74.1951 65.8963 74.5985 65.8963 75.0341V76.0284C65.8963 76.6117 65.9986 77.108 66.2031 77.517C66.4115 77.9261 66.7012 78.2386 67.0724 78.4545C67.4437 78.6667 67.8774 78.7727 68.3736 78.7727C68.6955 78.7727 68.9891 78.7273 69.2543 78.6364C69.5194 78.5417 69.7486 78.4015 69.9418 78.2159C70.1349 78.0303 70.2827 77.8011 70.3849 77.5284L71.9929 77.8182C71.8641 78.2917 71.633 78.7064 71.2997 79.0625C70.9702 79.4148 70.5554 79.6894 70.0554 79.8864C69.5592 80.0795 68.9929 80.1761 68.3565 80.1761ZM79.919 74.8182V80H78.2202V68.3636H79.8963V72.6932H80.0043C80.2088 72.2235 80.5213 71.8504 80.9418 71.5739C81.3622 71.2973 81.9115 71.1591 82.5895 71.1591C83.188 71.1591 83.7107 71.2822 84.1577 71.5284C84.6084 71.7746 84.9569 72.142 85.2031 72.6307C85.4531 73.1155 85.5781 73.7216 85.5781 74.4489V80H83.8793V74.6534C83.8793 74.0133 83.7145 73.517 83.3849 73.1648C83.0554 72.8087 82.5971 72.6307 82.0099 72.6307C81.6084 72.6307 81.2486 72.7159 80.9304 72.8864C80.616 73.0568 80.3679 73.3068 80.1861 73.6364C80.008 73.9621 79.919 74.3561 79.919 74.8182ZM91.5213 80.1761C90.7031 80.1761 89.9891 79.9886 89.3793 79.6136C88.7694 79.2386 88.2959 78.714 87.9588 78.0398C87.6217 77.3655 87.4531 76.5777 87.4531 75.6761C87.4531 74.7708 87.6217 73.9792 87.9588 73.3011C88.2959 72.6231 88.7694 72.0966 89.3793 71.7216C89.9891 71.3466 90.7031 71.1591 91.5213 71.1591C92.3395 71.1591 93.0535 71.3466 93.6634 71.7216C94.2732 72.0966 94.7467 72.6231 95.0838 73.3011C95.4209 73.9792 95.5895 74.7708 95.5895 75.6761C95.5895 76.5777 95.4209 77.3655 95.0838 78.0398C94.7467 78.714 94.2732 79.2386 93.6634 79.6136C93.0535 79.9886 92.3395 80.1761 91.5213 80.1761ZM91.527 78.75C92.0573 78.75 92.4967 78.6098 92.8452 78.3295C93.1937 78.0492 93.4512 77.6761 93.6179 77.2102C93.7884 76.7443 93.8736 76.2311 93.8736 75.6705C93.8736 75.1136 93.7884 74.6023 93.6179 74.1364C93.4512 73.6667 93.1937 73.2898 92.8452 73.0057C92.4967 72.7216 92.0573 72.5795 91.527 72.5795C90.9929 72.5795 90.5497 72.7216 90.1974 73.0057C89.849 73.2898 89.5895 73.6667 89.419 74.1364C89.2524 74.6023 89.169 75.1136 89.169 75.6705C89.169 76.2311 89.2524 76.7443 89.419 77.2102C89.5895 77.6761 89.849 78.0492 90.1974 78.3295C90.5497 78.6098 90.9929 78.75 91.527 78.75ZM99.1122 80L96.544 71.2727H98.2997L100.01 77.6818H100.095L101.811 71.2727H103.567L105.271 77.6534H105.357L107.055 71.2727H108.811L106.249 80H104.516L102.743 73.6989H102.612L100.839 80H99.1122ZM114.794 80V68.3636H116.55V78.4886H121.822V80H114.794ZM127.365 80.1761C126.547 80.1761 125.833 79.9886 125.223 79.6136C124.613 79.2386 124.14 78.714 123.803 78.0398C123.465 77.3655 123.297 76.5777 123.297 75.6761C123.297 74.7708 123.465 73.9792 123.803 73.3011C124.14 72.6231 124.613 72.0966 125.223 71.7216C125.833 71.3466 126.547 71.1591 127.365 71.1591C128.183 71.1591 128.897 71.3466 129.507 71.7216C130.117 72.0966 130.59 72.6231 130.928 73.3011C131.265 73.9792 131.433 74.7708 131.433 75.6761C131.433 76.5777 131.265 77.3655 130.928 78.0398C130.59 78.714 130.117 79.2386 129.507 79.6136C128.897 79.9886 128.183 80.1761 127.365 80.1761ZM127.371 78.75C127.901 78.75 128.34 78.6098 128.689 78.3295C129.037 78.0492 129.295 77.6761 129.462 77.2102C129.632 76.7443 129.717 76.2311 129.717 75.6705C129.717 75.1136 129.632 74.6023 129.462 74.1364C129.295 73.6667 129.037 73.2898 128.689 73.0057C128.34 72.7216 127.901 72.5795 127.371 72.5795C126.837 72.5795 126.393 72.7216 126.041 73.0057C125.693 73.2898 125.433 73.6667 125.263 74.1364C125.096 74.6023 125.013 75.1136 125.013 75.6705C125.013 76.2311 125.096 76.7443 125.263 77.2102C125.433 77.6761 125.693 78.0492 126.041 78.3295C126.393 78.6098 126.837 78.75 127.371 78.75ZM137.006 80.1761C136.161 80.1761 135.434 79.9848 134.824 79.6023C134.218 79.2159 133.752 78.6837 133.426 78.0057C133.1 77.3277 132.938 76.5511 132.938 75.6761C132.938 74.7898 133.104 74.0076 133.438 73.3295C133.771 72.6477 134.241 72.1155 134.847 71.733C135.453 71.3504 136.167 71.1591 136.989 71.1591C137.652 71.1591 138.242 71.2822 138.761 71.5284C139.28 71.7708 139.699 72.1117 140.017 72.5511C140.339 72.9905 140.53 73.5038 140.591 74.0909H138.938C138.847 73.6818 138.638 73.3295 138.312 73.0341C137.991 72.7386 137.559 72.5909 137.017 72.5909C136.544 72.5909 136.129 72.7159 135.773 72.9659C135.42 73.2121 135.146 73.5644 134.949 74.0227C134.752 74.4773 134.653 75.0152 134.653 75.6364C134.653 76.2727 134.75 76.822 134.943 77.2841C135.136 77.7462 135.409 78.1042 135.761 78.358C136.117 78.6117 136.536 78.7386 137.017 78.7386C137.339 78.7386 137.631 78.6799 137.892 78.5625C138.157 78.4413 138.379 78.2689 138.557 78.0455C138.739 77.822 138.866 77.553 138.938 77.2386H140.591C140.53 77.803 140.347 78.3068 140.04 78.75C139.733 79.1932 139.322 79.5417 138.807 79.7955C138.295 80.0492 137.695 80.1761 137.006 80.1761ZM144.107 74.8182V80H142.408V68.3636H144.084V72.6932H144.192C144.396 72.2235 144.709 71.8504 145.129 71.5739C145.55 71.2973 146.099 71.1591 146.777 71.1591C147.375 71.1591 147.898 71.2822 148.345 71.5284C148.796 71.7746 149.144 72.142 149.391 72.6307C149.641 73.1155 149.766 73.7216 149.766 74.4489V80H148.067V74.6534C148.067 74.0133 147.902 73.517 147.572 73.1648C147.243 72.8087 146.785 72.6307 146.197 72.6307C145.796 72.6307 145.436 72.7159 145.118 72.8864C144.804 73.0568 144.555 73.3068 144.374 73.6364C144.196 73.9621 144.107 74.3561 144.107 74.8182ZM156.267 80V71.2727H157.966V80H156.267ZM157.125 69.9261C156.83 69.9261 156.576 69.8277 156.364 69.6307C156.155 69.4299 156.051 69.1913 156.051 68.9148C156.051 68.6345 156.155 68.3958 156.364 68.1989C156.576 67.9981 156.83 67.8977 157.125 67.8977C157.42 67.8977 157.672 67.9981 157.881 68.1989C158.093 68.3958 158.199 68.6345 158.199 68.9148C158.199 69.1913 158.093 69.4299 157.881 69.6307C157.672 69.8277 157.42 69.9261 157.125 69.9261ZM161.95 74.8182V80H160.251V71.2727H161.882V72.6932H161.99C162.191 72.2311 162.505 71.8598 162.933 71.5795C163.365 71.2992 163.909 71.1591 164.564 71.1591C165.159 71.1591 165.679 71.2841 166.126 71.5341C166.573 71.7803 166.92 72.1477 167.166 72.6364C167.412 73.125 167.536 73.7292 167.536 74.4489V80H165.837V74.6534C165.837 74.0208 165.672 73.5265 165.342 73.1705C165.013 72.8106 164.56 72.6307 163.984 72.6307C163.59 72.6307 163.24 72.7159 162.933 72.8864C162.63 73.0568 162.39 73.3068 162.212 73.6364C162.037 73.9621 161.95 74.3561 161.95 74.8182ZM173.888 71.2727V72.6364H169.121V71.2727H173.888ZM170.399 69.1818H172.098V77.4375C172.098 77.767 172.147 78.0152 172.246 78.1818C172.344 78.3447 172.471 78.4564 172.626 78.517C172.786 78.5739 172.958 78.6023 173.143 78.6023C173.28 78.6023 173.399 78.5928 173.501 78.5739C173.604 78.5549 173.683 78.5398 173.74 78.5284L174.047 79.9318C173.948 79.9697 173.808 80.0076 173.626 80.0455C173.445 80.0871 173.217 80.1098 172.945 80.1136C172.498 80.1212 172.081 80.0417 171.695 79.875C171.308 79.7083 170.996 79.4508 170.757 79.1023C170.518 78.7538 170.399 78.3163 170.399 77.7898V69.1818ZM179.435 80.1761C178.575 80.1761 177.834 79.9924 177.213 79.625C176.596 79.2538 176.118 78.733 175.781 78.0625C175.448 77.3883 175.281 76.5985 175.281 75.6932C175.281 74.7992 175.448 74.0114 175.781 73.3295C176.118 72.6477 176.588 72.1155 177.19 71.733C177.796 71.3504 178.505 71.1591 179.315 71.1591C179.808 71.1591 180.285 71.2405 180.747 71.4034C181.209 71.5663 181.624 71.822 181.991 72.1705C182.359 72.5189 182.649 72.9716 182.861 73.5284C183.073 74.0814 183.179 74.7538 183.179 75.5455V76.1477H176.241V74.875H181.514C181.514 74.428 181.423 74.0322 181.241 73.6875C181.06 73.339 180.804 73.0644 180.474 72.8636C180.149 72.6629 179.766 72.5625 179.327 72.5625C178.849 72.5625 178.433 72.6799 178.077 72.9148C177.724 73.1458 177.452 73.4489 177.259 73.8239C177.069 74.1951 176.974 74.5985 176.974 75.0341V76.0284C176.974 76.6117 177.077 77.108 177.281 77.517C177.49 77.9261 177.779 78.2386 178.151 78.4545C178.522 78.6667 178.955 78.7727 179.452 78.7727C179.774 78.7727 180.067 78.7273 180.332 78.6364C180.598 78.5417 180.827 78.4015 181.02 78.2159C181.213 78.0303 181.361 77.8011 181.463 77.5284L183.071 77.8182C182.942 78.2917 182.711 78.7064 182.378 79.0625C182.048 79.4148 181.634 79.6894 181.134 79.8864C180.637 80.0795 180.071 80.1761 179.435 80.1761ZM188.723 83.4545C188.03 83.4545 187.433 83.3636 186.933 83.1818C186.437 83 186.032 82.7595 185.717 82.4602C185.403 82.161 185.168 81.8333 185.013 81.4773L186.473 80.875C186.575 81.0417 186.712 81.2178 186.882 81.4034C187.056 81.5928 187.291 81.7538 187.587 81.8864C187.886 82.0189 188.27 82.0852 188.74 82.0852C189.384 82.0852 189.916 81.928 190.337 81.6136C190.757 81.303 190.967 80.8068 190.967 80.125V78.4091H190.859C190.757 78.5947 190.609 78.8011 190.416 79.0284C190.227 79.2557 189.965 79.4527 189.632 79.6193C189.299 79.786 188.865 79.8693 188.331 79.8693C187.642 79.8693 187.02 79.7083 186.467 79.3864C185.918 79.0606 185.482 78.5814 185.161 77.9489C184.842 77.3125 184.683 76.5303 184.683 75.6023C184.683 74.6742 184.84 73.8788 185.155 73.2159C185.473 72.553 185.909 72.0455 186.462 71.6932C187.015 71.3371 187.642 71.1591 188.342 71.1591C188.884 71.1591 189.321 71.25 189.655 71.4318C189.988 71.6098 190.248 71.8182 190.433 72.0568C190.623 72.2955 190.768 72.5057 190.871 72.6875H190.996V71.2727H192.661V80.1932C192.661 80.9432 192.486 81.5587 192.138 82.0398C191.789 82.5208 191.318 82.8769 190.723 83.108C190.132 83.339 189.465 83.4545 188.723 83.4545ZM188.706 78.4602C189.195 78.4602 189.607 78.3466 189.945 78.1193C190.286 77.8883 190.543 77.5587 190.717 77.1307C190.895 76.6989 190.984 76.1818 190.984 75.5795C190.984 74.9924 190.897 74.4754 190.723 74.0284C190.549 73.5814 190.293 73.233 189.956 72.983C189.619 72.7292 189.202 72.6023 188.706 72.6023C188.195 72.6023 187.768 72.7348 187.428 73C187.087 73.2614 186.829 73.6174 186.655 74.0682C186.484 74.5189 186.399 75.0227 186.399 75.5795C186.399 76.1515 186.486 76.6534 186.661 77.0852C186.835 77.517 187.092 77.8542 187.433 78.0966C187.778 78.339 188.202 78.4602 188.706 78.4602ZM194.939 80V71.2727H196.581V72.6591H196.672C196.831 72.1894 197.111 71.8201 197.513 71.5511C197.918 71.2784 198.376 71.142 198.888 71.142C198.994 71.142 199.119 71.1458 199.263 71.1534C199.411 71.161 199.526 71.1705 199.609 71.1818V72.8068C199.541 72.7879 199.42 72.767 199.246 72.7443C199.071 72.7178 198.897 72.7045 198.723 72.7045C198.321 72.7045 197.964 72.7898 197.649 72.9602C197.339 73.1269 197.092 73.3598 196.911 73.6591C196.729 73.9545 196.638 74.2917 196.638 74.6705V80H194.939ZM203.541 80.1932C202.988 80.1932 202.488 80.0909 202.041 79.8864C201.594 79.678 201.24 79.3769 200.979 78.983C200.721 78.589 200.592 78.1061 200.592 77.5341C200.592 77.0417 200.687 76.6364 200.876 76.3182C201.066 76 201.321 75.7481 201.643 75.5625C201.965 75.3769 202.325 75.2367 202.723 75.142C203.121 75.0473 203.526 74.9754 203.939 74.9261C204.462 74.8655 204.886 74.8163 205.212 74.7784C205.537 74.7367 205.774 74.6705 205.922 74.5795C206.07 74.4886 206.143 74.3409 206.143 74.1364V74.0966C206.143 73.6004 206.003 73.2159 205.723 72.9432C205.446 72.6705 205.034 72.5341 204.484 72.5341C203.912 72.5341 203.462 72.661 203.132 72.9148C202.806 73.1648 202.581 73.4432 202.456 73.75L200.859 73.3864C201.049 72.8561 201.325 72.428 201.689 72.1023C202.056 71.7727 202.479 71.5341 202.956 71.3864C203.433 71.2348 203.935 71.1591 204.462 71.1591C204.81 71.1591 205.179 71.2008 205.57 71.2841C205.964 71.3636 206.331 71.5114 206.672 71.7273C207.017 71.9432 207.299 72.2519 207.518 72.6534C207.738 73.0511 207.848 73.5682 207.848 74.2045V80H206.189V78.8068H206.121C206.011 79.0265 205.846 79.2424 205.626 79.4545C205.407 79.6667 205.125 79.8428 204.78 79.983C204.435 80.1231 204.022 80.1932 203.541 80.1932ZM203.911 78.8295C204.38 78.8295 204.782 78.7367 205.115 78.5511C205.452 78.3655 205.708 78.1231 205.882 77.8239C206.06 77.5208 206.149 77.197 206.149 76.8523V75.7273C206.089 75.7879 205.971 75.8447 205.797 75.8977C205.626 75.947 205.431 75.9905 205.212 76.0284C204.992 76.0625 204.778 76.0947 204.57 76.125C204.361 76.1515 204.187 76.1742 204.047 76.1932C203.717 76.2348 203.416 76.3049 203.143 76.4034C202.875 76.5019 202.659 76.6439 202.496 76.8295C202.337 77.0114 202.257 77.2538 202.257 77.5568C202.257 77.9773 202.412 78.2955 202.723 78.5114C203.034 78.7235 203.429 78.8295 203.911 78.8295ZM214.185 71.2727V72.6364H209.418V71.2727H214.185ZM210.696 69.1818H212.395V77.4375C212.395 77.767 212.444 78.0152 212.543 78.1818C212.641 78.3447 212.768 78.4564 212.923 78.517C213.082 78.5739 213.255 78.6023 213.44 78.6023C213.577 78.6023 213.696 78.5928 213.798 78.5739C213.901 78.5549 213.98 78.5398 214.037 78.5284L214.344 79.9318C214.245 79.9697 214.105 80.0076 213.923 80.0455C213.741 80.0871 213.514 80.1098 213.241 80.1136C212.795 80.1212 212.378 80.0417 211.991 79.875C211.605 79.7083 211.293 79.4508 211.054 79.1023C210.815 78.7538 210.696 78.3163 210.696 77.7898V69.1818ZM219.732 80.1761C218.872 80.1761 218.131 79.9924 217.51 79.625C216.893 79.2538 216.415 78.733 216.078 78.0625C215.745 77.3883 215.578 76.5985 215.578 75.6932C215.578 74.7992 215.745 74.0114 216.078 73.3295C216.415 72.6477 216.885 72.1155 217.487 71.733C218.093 71.3504 218.802 71.1591 219.612 71.1591C220.105 71.1591 220.582 71.2405 221.044 71.4034C221.506 71.5663 221.921 71.822 222.288 72.1705C222.656 72.5189 222.946 72.9716 223.158 73.5284C223.37 74.0814 223.476 74.7538 223.476 75.5455V76.1477H216.538V74.875H221.811C221.811 74.428 221.72 74.0322 221.538 73.6875C221.357 73.339 221.101 73.0644 220.771 72.8636C220.446 72.6629 220.063 72.5625 219.624 72.5625C219.146 72.5625 218.73 72.6799 218.374 72.9148C218.021 73.1458 217.749 73.4489 217.555 73.8239C217.366 74.1951 217.271 74.5985 217.271 75.0341V76.0284C217.271 76.6117 217.374 77.108 217.578 77.517C217.786 77.9261 218.076 78.2386 218.447 78.4545C218.819 78.6667 219.252 78.7727 219.749 78.7727C220.071 78.7727 220.364 78.7273 220.629 78.6364C220.894 78.5417 221.124 78.4015 221.317 78.2159C221.51 78.0303 221.658 77.8011 221.76 77.5284L223.368 77.8182C223.239 78.2917 223.008 78.7064 222.675 79.0625C222.345 79.4148 221.93 79.6894 221.43 79.8864C220.934 80.0795 220.368 80.1761 219.732 80.1761ZM231.901 73.4034L230.361 73.6761C230.296 73.4792 230.194 73.2917 230.054 73.1136C229.918 72.9356 229.732 72.7898 229.497 72.6761C229.262 72.5625 228.969 72.5057 228.616 72.5057C228.135 72.5057 227.734 72.6136 227.412 72.8295C227.09 73.0417 226.929 73.3163 226.929 73.6534C226.929 73.9451 227.037 74.1799 227.253 74.358C227.469 74.536 227.817 74.6818 228.298 74.7955L229.685 75.1136C230.488 75.2992 231.086 75.5852 231.48 75.9716C231.874 76.358 232.071 76.8598 232.071 77.4773C232.071 78 231.92 78.4659 231.616 78.875C231.317 79.2803 230.899 79.5985 230.361 79.8295C229.827 80.0606 229.207 80.1761 228.503 80.1761C227.526 80.1761 226.728 79.9678 226.111 79.5511C225.493 79.1307 225.115 78.5341 224.974 77.7614L226.616 77.5114C226.719 77.9394 226.929 78.2633 227.247 78.483C227.565 78.6989 227.98 78.8068 228.491 78.8068C229.048 78.8068 229.493 78.6913 229.827 78.4602C230.16 78.2254 230.327 77.9394 230.327 77.6023C230.327 77.3295 230.224 77.1004 230.02 76.9148C229.819 76.7292 229.51 76.589 229.094 76.4943L227.616 76.1705C226.802 75.9848 226.2 75.6894 225.81 75.2841C225.423 74.8788 225.23 74.3655 225.23 73.7443C225.23 73.2292 225.374 72.7784 225.662 72.392C225.95 72.0057 226.348 71.7045 226.855 71.4886C227.363 71.2689 227.944 71.1591 228.599 71.1591C229.543 71.1591 230.285 71.3636 230.827 71.7727C231.368 72.178 231.726 72.7216 231.901 73.4034ZM238.173 83.2727V71.2727H239.832V72.6875H239.974C240.073 72.5057 240.215 72.2955 240.401 72.0568C240.586 71.8182 240.844 71.6098 241.173 71.4318C241.503 71.25 241.938 71.1591 242.48 71.1591C243.185 71.1591 243.813 71.3371 244.366 71.6932C244.92 72.0492 245.353 72.5625 245.668 73.233C245.986 73.9034 246.145 74.7102 246.145 75.6534C246.145 76.5966 245.988 77.4053 245.673 78.0795C245.359 78.75 244.927 79.267 244.378 79.6307C243.829 79.9905 243.202 80.1705 242.497 80.1705C241.967 80.1705 241.533 80.0814 241.196 79.9034C240.863 79.7254 240.601 79.517 240.412 79.2784C240.223 79.0398 240.077 78.8277 239.974 78.642H239.872V83.2727H238.173ZM239.838 75.6364C239.838 76.25 239.927 76.7879 240.105 77.25C240.283 77.7121 240.541 78.0739 240.878 78.3352C241.215 78.5928 241.628 78.7216 242.116 78.7216C242.624 78.7216 243.048 78.5871 243.389 78.3182C243.73 78.0455 243.988 77.6761 244.162 77.2102C244.34 76.7443 244.429 76.2197 244.429 75.6364C244.429 75.0606 244.342 74.5436 244.168 74.0852C243.997 73.6269 243.74 73.2652 243.395 73C243.054 72.7348 242.628 72.6023 242.116 72.6023C241.624 72.6023 241.207 72.7292 240.866 72.983C240.529 73.2367 240.274 73.5909 240.099 74.0455C239.925 74.5 239.838 75.0303 239.838 75.6364ZM251.724 80.1761C250.906 80.1761 250.192 79.9886 249.582 79.6136C248.973 79.2386 248.499 78.714 248.162 78.0398C247.825 77.3655 247.656 76.5777 247.656 75.6761C247.656 74.7708 247.825 73.9792 248.162 73.3011C248.499 72.6231 248.973 72.0966 249.582 71.7216C250.192 71.3466 250.906 71.1591 251.724 71.1591C252.543 71.1591 253.257 71.3466 253.866 71.7216C254.476 72.0966 254.95 72.6231 255.287 73.3011C255.624 73.9792 255.793 74.7708 255.793 75.6761C255.793 76.5777 255.624 77.3655 255.287 78.0398C254.95 78.714 254.476 79.2386 253.866 79.6136C253.257 79.9886 252.543 80.1761 251.724 80.1761ZM251.73 78.75C252.26 78.75 252.7 78.6098 253.048 78.3295C253.397 78.0492 253.654 77.6761 253.821 77.2102C253.991 76.7443 254.077 76.2311 254.077 75.6705C254.077 75.1136 253.991 74.6023 253.821 74.1364C253.654 73.6667 253.397 73.2898 253.048 73.0057C252.7 72.7216 252.26 72.5795 251.73 72.5795C251.196 72.5795 250.753 72.7216 250.401 73.0057C250.052 73.2898 249.793 73.6667 249.622 74.1364C249.455 74.6023 249.372 75.1136 249.372 75.6705C249.372 76.2311 249.455 76.7443 249.622 77.2102C249.793 77.6761 250.052 78.0492 250.401 78.3295C250.753 78.6098 251.196 78.75 251.73 78.75ZM257.689 80V71.2727H259.331V72.6591H259.422C259.581 72.1894 259.861 71.8201 260.263 71.5511C260.668 71.2784 261.126 71.142 261.638 71.142C261.744 71.142 261.869 71.1458 262.013 71.1534C262.161 71.161 262.276 71.1705 262.359 71.1818V72.8068C262.291 72.7879 262.17 72.767 261.996 72.7443C261.821 72.7178 261.647 72.7045 261.473 72.7045C261.071 72.7045 260.714 72.7898 260.399 72.9602C260.089 73.1269 259.842 73.3598 259.661 73.6591C259.479 73.9545 259.388 74.2917 259.388 74.6705V80H257.689ZM268.419 71.2727V72.6364H263.652V71.2727H268.419ZM264.93 69.1818H266.629V77.4375C266.629 77.767 266.679 78.0152 266.777 78.1818C266.875 78.3447 267.002 78.4564 267.158 78.517C267.317 78.5739 267.489 78.6023 267.675 78.6023C267.811 78.6023 267.93 78.5928 268.033 78.5739C268.135 78.5549 268.214 78.5398 268.271 78.5284L268.578 79.9318C268.48 79.9697 268.339 80.0076 268.158 80.0455C267.976 80.0871 267.749 80.1098 267.476 80.1136C267.029 80.1212 266.612 80.0417 266.226 79.875C265.839 79.7083 265.527 79.4508 265.288 79.1023C265.05 78.7538 264.93 78.3163 264.93 77.7898V69.1818ZM274.452 71.2727V72.6364H269.52V71.2727H274.452ZM270.872 80V70.2614C270.872 69.7159 270.991 69.2633 271.23 68.9034C271.469 68.5398 271.785 68.2689 272.179 68.0909C272.573 67.9091 273.001 67.8182 273.463 67.8182C273.804 67.8182 274.096 67.8466 274.338 67.9034C274.58 67.9564 274.76 68.0057 274.878 68.0511L274.48 69.4261C274.401 69.4034 274.298 69.3769 274.173 69.3466C274.048 69.3125 273.897 69.2955 273.719 69.2955C273.306 69.2955 273.01 69.3977 272.832 69.6023C272.658 69.8068 272.571 70.1023 272.571 70.4886V80H270.872ZM279.537 80.1761C278.719 80.1761 278.005 79.9886 277.395 79.6136C276.785 79.2386 276.312 78.714 275.974 78.0398C275.637 77.3655 275.469 76.5777 275.469 75.6761C275.469 74.7708 275.637 73.9792 275.974 73.3011C276.312 72.6231 276.785 72.0966 277.395 71.7216C278.005 71.3466 278.719 71.1591 279.537 71.1591C280.355 71.1591 281.069 71.3466 281.679 71.7216C282.289 72.0966 282.762 72.6231 283.099 73.3011C283.437 73.9792 283.605 74.7708 283.605 75.6761C283.605 76.5777 283.437 77.3655 283.099 78.0398C282.762 78.714 282.289 79.2386 281.679 79.6136C281.069 79.9886 280.355 80.1761 279.537 80.1761ZM279.543 78.75C280.073 78.75 280.512 78.6098 280.861 78.3295C281.209 78.0492 281.467 77.6761 281.634 77.2102C281.804 76.7443 281.889 76.2311 281.889 75.6705C281.889 75.1136 281.804 74.6023 281.634 74.1364C281.467 73.6667 281.209 73.2898 280.861 73.0057C280.512 72.7216 280.073 72.5795 279.543 72.5795C279.009 72.5795 278.565 72.7216 278.213 73.0057C277.865 73.2898 277.605 73.6667 277.435 74.1364C277.268 74.6023 277.185 75.1136 277.185 75.6705C277.185 76.2311 277.268 76.7443 277.435 77.2102C277.605 77.6761 277.865 78.0492 278.213 78.3295C278.565 78.6098 279.009 78.75 279.543 78.75ZM287.2 68.3636V80H285.501V68.3636H287.2ZM289.486 80V71.2727H291.185V80H289.486ZM290.344 69.9261C290.048 69.9261 289.795 69.8277 289.582 69.6307C289.374 69.4299 289.27 69.1913 289.27 68.9148C289.27 68.6345 289.374 68.3958 289.582 68.1989C289.795 67.9981 290.048 67.8977 290.344 67.8977C290.639 67.8977 290.891 67.9981 291.099 68.1989C291.312 68.3958 291.418 68.6345 291.418 68.9148C291.418 69.1913 291.312 69.4299 291.099 69.6307C290.891 69.8277 290.639 69.9261 290.344 69.9261ZM297.146 80.1761C296.328 80.1761 295.614 79.9886 295.004 79.6136C294.394 79.2386 293.921 78.714 293.584 78.0398C293.247 77.3655 293.078 76.5777 293.078 75.6761C293.078 74.7708 293.247 73.9792 293.584 73.3011C293.921 72.6231 294.394 72.0966 295.004 71.7216C295.614 71.3466 296.328 71.1591 297.146 71.1591C297.964 71.1591 298.679 71.3466 299.288 71.7216C299.898 72.0966 300.372 72.6231 300.709 73.3011C301.046 73.9792 301.214 74.7708 301.214 75.6761C301.214 76.5777 301.046 77.3655 300.709 78.0398C300.372 78.714 299.898 79.2386 299.288 79.6136C298.679 79.9886 297.964 80.1761 297.146 80.1761ZM297.152 78.75C297.682 78.75 298.122 78.6098 298.47 78.3295C298.819 78.0492 299.076 77.6761 299.243 77.2102C299.413 76.7443 299.499 76.2311 299.499 75.6705C299.499 75.1136 299.413 74.6023 299.243 74.1364C299.076 73.6667 298.819 73.2898 298.47 73.0057C298.122 72.7216 297.682 72.5795 297.152 72.5795C296.618 72.5795 296.175 72.7216 295.822 73.0057C295.474 73.2898 295.214 73.6667 295.044 74.1364C294.877 74.6023 294.794 75.1136 294.794 75.6705C294.794 76.2311 294.877 76.7443 295.044 77.2102C295.214 77.6761 295.474 78.0492 295.822 78.3295C296.175 78.6098 296.618 78.75 297.152 78.75ZM33.6818 99.1932C33.1288 99.1932 32.6288 99.0909 32.1818 98.8864C31.7348 98.678 31.3807 98.3769 31.1193 97.983C30.8617 97.589 30.733 97.1061 30.733 96.5341C30.733 96.0417 30.8277 95.6364 31.017 95.3182C31.2064 95 31.4621 94.7481 31.7841 94.5625C32.1061 94.3769 32.4659 94.2367 32.8636 94.142C33.2614 94.0473 33.6667 93.9754 34.0795 93.9261C34.6023 93.8655 35.0265 93.8163 35.3523 93.7784C35.678 93.7367 35.9148 93.6705 36.0625 93.5795C36.2102 93.4886 36.2841 93.3409 36.2841 93.1364V93.0966C36.2841 92.6004 36.1439 92.2159 35.8636 91.9432C35.5871 91.6705 35.1742 91.5341 34.625 91.5341C34.053 91.5341 33.6023 91.661 33.2727 91.9148C32.947 92.1648 32.7216 92.4432 32.5966 92.75L31 92.3864C31.1894 91.8561 31.4659 91.428 31.8295 91.1023C32.197 90.7727 32.6193 90.5341 33.0966 90.3864C33.5739 90.2348 34.0758 90.1591 34.6023 90.1591C34.9508 90.1591 35.3201 90.2008 35.7102 90.2841C36.1042 90.3636 36.4716 90.5114 36.8125 90.7273C37.1572 90.9432 37.4394 91.2519 37.6591 91.6534C37.8788 92.0511 37.9886 92.5682 37.9886 93.2045V99H36.3295V97.8068H36.2614C36.1515 98.0265 35.9867 98.2424 35.767 98.4545C35.5473 98.6667 35.2652 98.8428 34.9205 98.983C34.5758 99.1231 34.1629 99.1932 33.6818 99.1932ZM34.0511 97.8295C34.5208 97.8295 34.9223 97.7367 35.2557 97.5511C35.5928 97.3655 35.8485 97.1231 36.0227 96.8239C36.2008 96.5208 36.2898 96.197 36.2898 95.8523V94.7273C36.2292 94.7879 36.1117 94.8447 35.9375 94.8977C35.767 94.947 35.572 94.9905 35.3523 95.0284C35.1326 95.0625 34.9186 95.0947 34.7102 95.125C34.5019 95.1515 34.3277 95.1742 34.1875 95.1932C33.858 95.2348 33.5568 95.3049 33.2841 95.4034C33.0152 95.5019 32.7992 95.6439 32.6364 95.8295C32.4773 96.0114 32.3977 96.2538 32.3977 96.5568C32.3977 96.9773 32.553 97.2955 32.8636 97.5114C33.1742 97.7235 33.5701 97.8295 34.0511 97.8295ZM41.9503 93.8182V99H40.2514V90.2727H41.8821V91.6932H41.9901C42.1908 91.2311 42.5052 90.8598 42.9332 90.5795C43.3651 90.2992 43.9086 90.1591 44.5639 90.1591C45.1586 90.1591 45.6795 90.2841 46.1264 90.5341C46.5734 90.7803 46.92 91.1477 47.1662 91.6364C47.4124 92.125 47.5355 92.7292 47.5355 93.4489V99H45.8366V93.6534C45.8366 93.0208 45.6719 92.5265 45.3423 92.1705C45.0128 91.8106 44.5601 91.6307 43.9844 91.6307C43.5904 91.6307 43.2401 91.7159 42.9332 91.8864C42.6302 92.0568 42.3897 92.3068 42.2116 92.6364C42.0374 92.9621 41.9503 93.3561 41.9503 93.8182ZM52.3537 99.1932C51.8007 99.1932 51.3007 99.0909 50.8537 98.8864C50.4067 98.678 50.0526 98.3769 49.7912 97.983C49.5336 97.589 49.4048 97.1061 49.4048 96.5341C49.4048 96.0417 49.4995 95.6364 49.6889 95.3182C49.8783 95 50.134 94.7481 50.456 94.5625C50.7779 94.3769 51.1378 94.2367 51.5355 94.142C51.9332 94.0473 52.3385 93.9754 52.7514 93.9261C53.2741 93.8655 53.6984 93.8163 54.0241 93.7784C54.3499 93.7367 54.5866 93.6705 54.7344 93.5795C54.8821 93.4886 54.956 93.3409 54.956 93.1364V93.0966C54.956 92.6004 54.8158 92.2159 54.5355 91.9432C54.259 91.6705 53.8461 91.5341 53.2969 91.5341C52.7249 91.5341 52.2741 91.661 51.9446 91.9148C51.6188 92.1648 51.3935 92.4432 51.2685 92.75L49.6719 92.3864C49.8613 91.8561 50.1378 91.428 50.5014 91.1023C50.8688 90.7727 51.2912 90.5341 51.7685 90.3864C52.2457 90.2348 52.7476 90.1591 53.2741 90.1591C53.6226 90.1591 53.992 90.2008 54.3821 90.2841C54.776 90.3636 55.1435 90.5114 55.4844 90.7273C55.8291 90.9432 56.1113 91.2519 56.331 91.6534C56.5507 92.0511 56.6605 92.5682 56.6605 93.2045V99H55.0014V97.8068H54.9332C54.8234 98.0265 54.6586 98.2424 54.4389 98.4545C54.2192 98.6667 53.937 98.8428 53.5923 98.983C53.2476 99.1231 52.8348 99.1932 52.3537 99.1932ZM52.723 97.8295C53.1927 97.8295 53.5942 97.7367 53.9276 97.5511C54.2647 97.3655 54.5204 97.1231 54.6946 96.8239C54.8726 96.5208 54.9616 96.197 54.9616 95.8523V94.7273C54.901 94.7879 54.7836 94.8447 54.6094 94.8977C54.4389 94.947 54.2438 94.9905 54.0241 95.0284C53.8045 95.0625 53.5904 95.0947 53.3821 95.125C53.1738 95.1515 52.9995 95.1742 52.8594 95.1932C52.5298 95.2348 52.2287 95.3049 51.956 95.4034C51.687 95.5019 51.4711 95.6439 51.3082 95.8295C51.1491 96.0114 51.0696 96.2538 51.0696 96.5568C51.0696 96.9773 51.2249 97.2955 51.5355 97.5114C51.8461 97.7235 52.242 97.8295 52.723 97.8295ZM60.6222 87.3636V99H58.9233V87.3636H60.6222ZM63.9815 102.273C63.7277 102.273 63.4967 102.252 63.2884 102.21C63.08 102.172 62.9247 102.131 62.8224 102.085L63.2315 100.693C63.5421 100.777 63.8187 100.813 64.0611 100.801C64.3035 100.79 64.5175 100.699 64.7031 100.528C64.8925 100.358 65.0592 100.08 65.2031 99.6932L65.4134 99.1136L62.2202 90.2727H64.0384L66.2486 97.0455H66.3395L68.5497 90.2727H70.3736L66.777 100.165C66.6103 100.619 66.3982 101.004 66.1406 101.318C65.883 101.636 65.5762 101.875 65.2202 102.034C64.8641 102.193 64.4512 102.273 63.9815 102.273ZM76.044 90.2727V91.6364H71.277V90.2727H76.044ZM72.5554 88.1818H74.2543V96.4375C74.2543 96.767 74.3035 97.0152 74.402 97.1818C74.5005 97.3447 74.6274 97.4564 74.7827 97.517C74.9418 97.5739 75.1141 97.6023 75.2997 97.6023C75.4361 97.6023 75.5554 97.5928 75.6577 97.5739C75.7599 97.5549 75.8395 97.5398 75.8963 97.5284L76.2031 98.9318C76.1046 98.9697 75.9645 99.0076 75.7827 99.0455C75.6009 99.0871 75.3736 99.1098 75.1009 99.1136C74.6539 99.1212 74.2372 99.0417 73.8509 98.875C73.4645 98.7083 73.152 98.4508 72.9134 98.1023C72.6747 97.7538 72.5554 97.3163 72.5554 96.7898V88.1818ZM77.9233 99V90.2727H79.6222V99H77.9233ZM78.7812 88.9261C78.4858 88.9261 78.232 88.8277 78.0199 88.6307C77.8116 88.4299 77.7074 88.1913 77.7074 87.9148C77.7074 87.6345 77.8116 87.3958 78.0199 87.1989C78.232 86.9981 78.4858 86.8977 78.7812 86.8977C79.0767 86.8977 79.3286 86.9981 79.5369 87.1989C79.7491 87.3958 79.8551 87.6345 79.8551 87.9148C79.8551 88.1913 79.7491 88.4299 79.5369 88.6307C79.3286 88.8277 79.0767 88.9261 78.7812 88.9261ZM85.5838 99.1761C84.7391 99.1761 84.0118 98.9848 83.402 98.6023C82.7959 98.2159 82.33 97.6837 82.0043 97.0057C81.6785 96.3277 81.5156 95.5511 81.5156 94.6761C81.5156 93.7898 81.6823 93.0076 82.0156 92.3295C82.349 91.6477 82.8187 91.1155 83.4247 90.733C84.0308 90.3504 84.7448 90.1591 85.5668 90.1591C86.2296 90.1591 86.8205 90.2822 87.3395 90.5284C87.8584 90.7708 88.277 91.1117 88.5952 91.5511C88.9171 91.9905 89.1084 92.5038 89.169 93.0909H87.5156C87.4247 92.6818 87.2164 92.3295 86.8906 92.0341C86.5687 91.7386 86.1368 91.5909 85.5952 91.5909C85.1217 91.5909 84.7069 91.7159 84.3509 91.9659C83.9986 92.2121 83.724 92.5644 83.527 93.0227C83.33 93.4773 83.2315 94.0152 83.2315 94.6364C83.2315 95.2727 83.3281 95.822 83.5213 96.2841C83.7145 96.7462 83.9872 97.1042 84.3395 97.358C84.6955 97.6117 85.1141 97.7386 85.5952 97.7386C85.9171 97.7386 86.2088 97.6799 86.4702 97.5625C86.7353 97.4413 86.9569 97.2689 87.1349 97.0455C87.3168 96.822 87.4437 96.553 87.5156 96.2386H89.169C89.1084 96.803 88.9247 97.3068 88.6179 97.75C88.3111 98.1932 87.9001 98.5417 87.3849 98.7955C86.8736 99.0492 86.2732 99.1761 85.5838 99.1761ZM97.5256 92.4034L95.9858 92.6761C95.9214 92.4792 95.8191 92.2917 95.679 92.1136C95.5426 91.9356 95.357 91.7898 95.1222 91.6761C94.8873 91.5625 94.5938 91.5057 94.2415 91.5057C93.7604 91.5057 93.3589 91.6136 93.0369 91.8295C92.715 92.0417 92.554 92.3163 92.554 92.6534C92.554 92.9451 92.6619 93.1799 92.8778 93.358C93.0938 93.536 93.4422 93.6818 93.9233 93.7955L95.3097 94.1136C96.1127 94.2992 96.7112 94.5852 97.1051 94.9716C97.4991 95.358 97.696 95.8598 97.696 96.4773C97.696 97 97.5445 97.4659 97.2415 97.875C96.9422 98.2803 96.5237 98.5985 95.9858 98.8295C95.4517 99.0606 94.8324 99.1761 94.1278 99.1761C93.1506 99.1761 92.3532 98.9678 91.7358 98.5511C91.1184 98.1307 90.7396 97.5341 90.5994 96.7614L92.2415 96.5114C92.3438 96.9394 92.554 97.2633 92.8722 97.483C93.1903 97.6989 93.6051 97.8068 94.1165 97.8068C94.6733 97.8068 95.1184 97.6913 95.4517 97.4602C95.785 97.2254 95.9517 96.9394 95.9517 96.6023C95.9517 96.3295 95.8494 96.1004 95.6449 95.9148C95.4441 95.7292 95.1354 95.589 94.7188 95.4943L93.2415 95.1705C92.4271 94.9848 91.8248 94.6894 91.4347 94.2841C91.0483 93.8788 90.8551 93.3655 90.8551 92.7443C90.8551 92.2292 90.9991 91.7784 91.2869 91.392C91.5748 91.0057 91.9725 90.7045 92.4801 90.4886C92.9877 90.2689 93.5691 90.1591 94.2244 90.1591C95.1676 90.1591 95.91 90.3636 96.4517 90.7727C96.9934 91.178 97.3513 91.7216 97.5256 92.4034ZM106.338 99.1932C105.785 99.1932 105.285 99.0909 104.838 98.8864C104.391 98.678 104.037 98.3769 103.776 97.983C103.518 97.589 103.389 97.1061 103.389 96.5341C103.389 96.0417 103.484 95.6364 103.673 95.3182C103.863 95 104.118 94.7481 104.44 94.5625C104.762 94.3769 105.122 94.2367 105.52 94.142C105.918 94.0473 106.323 93.9754 106.736 93.9261C107.259 93.8655 107.683 93.8163 108.009 93.7784C108.334 93.7367 108.571 93.6705 108.719 93.5795C108.866 93.4886 108.94 93.3409 108.94 93.1364V93.0966C108.94 92.6004 108.8 92.2159 108.52 91.9432C108.243 91.6705 107.83 91.5341 107.281 91.5341C106.709 91.5341 106.259 91.661 105.929 91.9148C105.603 92.1648 105.378 92.4432 105.253 92.75L103.656 92.3864C103.846 91.8561 104.122 91.428 104.486 91.1023C104.853 90.7727 105.276 90.5341 105.753 90.3864C106.23 90.2348 106.732 90.1591 107.259 90.1591C107.607 90.1591 107.976 90.2008 108.366 90.2841C108.76 90.3636 109.128 90.5114 109.469 90.7273C109.813 90.9432 110.096 91.2519 110.315 91.6534C110.535 92.0511 110.645 92.5682 110.645 93.2045V99H108.986V97.8068H108.918C108.808 98.0265 108.643 98.2424 108.423 98.4545C108.204 98.6667 107.921 98.8428 107.577 98.983C107.232 99.1231 106.819 99.1932 106.338 99.1932ZM106.707 97.8295C107.177 97.8295 107.579 97.7367 107.912 97.5511C108.249 97.3655 108.505 97.1231 108.679 96.8239C108.857 96.5208 108.946 96.197 108.946 95.8523V94.7273C108.885 94.7879 108.768 94.8447 108.594 94.8977C108.423 94.947 108.228 94.9905 108.009 95.0284C107.789 95.0625 107.575 95.0947 107.366 95.125C107.158 95.1515 106.984 95.1742 106.844 95.1932C106.514 95.2348 106.213 95.3049 105.94 95.4034C105.671 95.5019 105.455 95.6439 105.293 95.8295C105.134 96.0114 105.054 96.2538 105.054 96.5568C105.054 96.9773 105.209 97.2955 105.52 97.5114C105.83 97.7235 106.226 97.8295 106.707 97.8295ZM114.607 93.8182V99H112.908V90.2727H114.538V91.6932H114.646C114.847 91.2311 115.161 90.8598 115.589 90.5795C116.021 90.2992 116.565 90.1591 117.22 90.1591C117.815 90.1591 118.336 90.2841 118.783 90.5341C119.23 90.7803 119.576 91.1477 119.822 91.6364C120.069 92.125 120.192 92.7292 120.192 93.4489V99H118.493V93.6534C118.493 93.0208 118.328 92.5265 117.999 92.1705C117.669 91.8106 117.216 91.6307 116.641 91.6307C116.247 91.6307 115.896 91.7159 115.589 91.8864C115.286 92.0568 115.046 92.3068 114.868 92.6364C114.694 92.9621 114.607 93.3561 114.607 93.8182ZM125.737 99.1705C125.033 99.1705 124.404 98.9905 123.851 98.6307C123.302 98.267 122.87 97.75 122.555 97.0795C122.245 96.4053 122.089 95.5966 122.089 94.6534C122.089 93.7102 122.247 92.9034 122.561 92.233C122.879 91.5625 123.315 91.0492 123.868 90.6932C124.421 90.3371 125.048 90.1591 125.749 90.1591C126.29 90.1591 126.726 90.25 127.055 90.4318C127.389 90.6098 127.646 90.8182 127.828 91.0568C128.014 91.2955 128.158 91.5057 128.26 91.6875H128.362V87.3636H130.061V99H128.402V97.642H128.26C128.158 97.8277 128.01 98.0398 127.817 98.2784C127.627 98.517 127.366 98.7254 127.033 98.9034C126.699 99.0814 126.268 99.1705 125.737 99.1705ZM126.112 97.7216C126.601 97.7216 127.014 97.5928 127.351 97.3352C127.692 97.0739 127.949 96.7121 128.124 96.25C128.302 95.7879 128.391 95.25 128.391 94.6364C128.391 94.0303 128.304 93.5 128.129 93.0455C127.955 92.5909 127.699 92.2367 127.362 91.983C127.025 91.7292 126.608 91.6023 126.112 91.6023C125.601 91.6023 125.175 91.7348 124.834 92C124.493 92.2652 124.235 92.6269 124.061 93.0852C123.891 93.5436 123.805 94.0606 123.805 94.6364C123.805 95.2197 123.893 95.7443 124.067 96.2102C124.241 96.6761 124.499 97.0455 124.839 97.3182C125.184 97.5871 125.608 97.7216 126.112 97.7216ZM138.612 99L136.044 90.2727H137.8L139.51 96.6818H139.595L141.311 90.2727H143.067L144.771 96.6534H144.857L146.555 90.2727H148.311L145.749 99H144.016L142.243 92.6989H142.112L140.339 99H138.612ZM151.622 93.8182V99H149.923V87.3636H151.599V91.6932H151.707C151.912 91.2235 152.224 90.8504 152.645 90.5739C153.065 90.2973 153.615 90.1591 154.293 90.1591C154.891 90.1591 155.414 90.2822 155.861 90.5284C156.312 90.7746 156.66 91.142 156.906 91.6307C157.156 92.1155 157.281 92.7216 157.281 93.4489V99H155.582V93.6534C155.582 93.0133 155.418 92.517 155.088 92.1648C154.759 91.8087 154.3 91.6307 153.713 91.6307C153.312 91.6307 152.952 91.7159 152.634 91.8864C152.319 92.0568 152.071 92.3068 151.889 92.6364C151.711 92.9621 151.622 93.3561 151.622 93.8182ZM162.088 99.1932C161.535 99.1932 161.035 99.0909 160.588 98.8864C160.141 98.678 159.787 98.3769 159.526 97.983C159.268 97.589 159.139 97.1061 159.139 96.5341C159.139 96.0417 159.234 95.6364 159.423 95.3182C159.613 95 159.868 94.7481 160.19 94.5625C160.512 94.3769 160.872 94.2367 161.27 94.142C161.668 94.0473 162.073 93.9754 162.486 93.9261C163.009 93.8655 163.433 93.8163 163.759 93.7784C164.084 93.7367 164.321 93.6705 164.469 93.5795C164.616 93.4886 164.69 93.3409 164.69 93.1364V93.0966C164.69 92.6004 164.55 92.2159 164.27 91.9432C163.993 91.6705 163.58 91.5341 163.031 91.5341C162.459 91.5341 162.009 91.661 161.679 91.9148C161.353 92.1648 161.128 92.4432 161.003 92.75L159.406 92.3864C159.596 91.8561 159.872 91.428 160.236 91.1023C160.603 90.7727 161.026 90.5341 161.503 90.3864C161.98 90.2348 162.482 90.1591 163.009 90.1591C163.357 90.1591 163.726 90.2008 164.116 90.2841C164.51 90.3636 164.878 90.5114 165.219 90.7273C165.563 90.9432 165.846 91.2519 166.065 91.6534C166.285 92.0511 166.395 92.5682 166.395 93.2045V99H164.736V97.8068H164.668C164.558 98.0265 164.393 98.2424 164.173 98.4545C163.954 98.6667 163.671 98.8428 163.327 98.983C162.982 99.1231 162.569 99.1932 162.088 99.1932ZM162.457 97.8295C162.927 97.8295 163.329 97.7367 163.662 97.5511C163.999 97.3655 164.255 97.1231 164.429 96.8239C164.607 96.5208 164.696 96.197 164.696 95.8523V94.7273C164.635 94.7879 164.518 94.8447 164.344 94.8977C164.173 94.947 163.978 94.9905 163.759 95.0284C163.539 95.0625 163.325 95.0947 163.116 95.125C162.908 95.1515 162.734 95.1742 162.594 95.1932C162.264 95.2348 161.963 95.3049 161.69 95.4034C161.421 95.5019 161.205 95.6439 161.043 95.8295C160.884 96.0114 160.804 96.2538 160.804 96.5568C160.804 96.9773 160.959 97.2955 161.27 97.5114C161.58 97.7235 161.976 97.8295 162.457 97.8295ZM170.357 87.3636V99H168.658V87.3636H170.357ZM176.403 99.1761C175.544 99.1761 174.803 98.9924 174.182 98.625C173.564 98.2538 173.087 97.733 172.75 97.0625C172.417 96.3883 172.25 95.5985 172.25 94.6932C172.25 93.7992 172.417 93.0114 172.75 92.3295C173.087 91.6477 173.557 91.1155 174.159 90.733C174.765 90.3504 175.473 90.1591 176.284 90.1591C176.777 90.1591 177.254 90.2405 177.716 90.4034C178.178 90.5663 178.593 90.822 178.96 91.1705C179.328 91.5189 179.617 91.9716 179.83 92.5284C180.042 93.0814 180.148 93.7538 180.148 94.5455V95.1477H173.21V93.875H178.483C178.483 93.428 178.392 93.0322 178.21 92.6875C178.028 92.339 177.773 92.0644 177.443 91.8636C177.117 91.6629 176.735 91.5625 176.295 91.5625C175.818 91.5625 175.402 91.6799 175.045 91.9148C174.693 92.1458 174.42 92.4489 174.227 92.8239C174.038 93.1951 173.943 93.5985 173.943 94.0341V95.0284C173.943 95.6117 174.045 96.108 174.25 96.517C174.458 96.9261 174.748 97.2386 175.119 97.4545C175.491 97.6667 175.924 97.7727 176.42 97.7727C176.742 97.7727 177.036 97.7273 177.301 97.6364C177.566 97.5417 177.795 97.4015 177.989 97.2159C178.182 97.0303 178.33 96.8011 178.432 96.5284L180.04 96.8182C179.911 97.2917 179.68 97.7064 179.347 98.0625C179.017 98.4148 178.602 98.6894 178.102 98.8864C177.606 99.0795 177.04 99.1761 176.403 99.1761ZM188.159 99L185.591 90.2727H187.347L189.057 96.6818H189.142L190.858 90.2727H192.614L194.318 96.6534H194.403L196.102 90.2727H197.858L195.295 99H193.562L191.79 92.6989H191.659L189.886 99H188.159ZM202.01 99.1932C201.457 99.1932 200.957 99.0909 200.51 98.8864C200.063 98.678 199.709 98.3769 199.447 97.983C199.19 97.589 199.061 97.1061 199.061 96.5341C199.061 96.0417 199.156 95.6364 199.345 95.3182C199.535 95 199.79 94.7481 200.112 94.5625C200.434 94.3769 200.794 94.2367 201.192 94.142C201.589 94.0473 201.995 93.9754 202.408 93.9261C202.93 93.8655 203.355 93.8163 203.68 93.7784C204.006 93.7367 204.243 93.6705 204.391 93.5795C204.538 93.4886 204.612 93.3409 204.612 93.1364V93.0966C204.612 92.6004 204.472 92.2159 204.192 91.9432C203.915 91.6705 203.502 91.5341 202.953 91.5341C202.381 91.5341 201.93 91.661 201.601 91.9148C201.275 92.1648 201.05 92.4432 200.925 92.75L199.328 92.3864C199.518 91.8561 199.794 91.428 200.158 91.1023C200.525 90.7727 200.947 90.5341 201.425 90.3864C201.902 90.2348 202.404 90.1591 202.93 90.1591C203.279 90.1591 203.648 90.2008 204.038 90.2841C204.432 90.3636 204.8 90.5114 205.141 90.7273C205.485 90.9432 205.768 91.2519 205.987 91.6534C206.207 92.0511 206.317 92.5682 206.317 93.2045V99H204.658V97.8068H204.589C204.48 98.0265 204.315 98.2424 204.095 98.4545C203.875 98.6667 203.593 98.8428 203.249 98.983C202.904 99.1231 202.491 99.1932 202.01 99.1932ZM202.379 97.8295C202.849 97.8295 203.25 97.7367 203.584 97.5511C203.921 97.3655 204.177 97.1231 204.351 96.8239C204.529 96.5208 204.618 96.197 204.618 95.8523V94.7273C204.557 94.7879 204.44 94.8447 204.266 94.8977C204.095 94.947 203.9 94.9905 203.68 95.0284C203.461 95.0625 203.247 95.0947 203.038 95.125C202.83 95.1515 202.656 95.1742 202.516 95.1932C202.186 95.2348 201.885 95.3049 201.612 95.4034C201.343 95.5019 201.127 95.6439 200.964 95.8295C200.805 96.0114 200.726 96.2538 200.726 96.5568C200.726 96.9773 200.881 97.2955 201.192 97.5114C201.502 97.7235 201.898 97.8295 202.379 97.8295ZM212.653 90.2727V91.6364H207.886V90.2727H212.653ZM209.165 88.1818H210.864V96.4375C210.864 96.767 210.913 97.0152 211.011 97.1818C211.11 97.3447 211.237 97.4564 211.392 97.517C211.551 97.5739 211.723 97.6023 211.909 97.6023C212.045 97.6023 212.165 97.5928 212.267 97.5739C212.369 97.5549 212.449 97.5398 212.506 97.5284L212.812 98.9318C212.714 98.9697 212.574 99.0076 212.392 99.0455C212.21 99.0871 211.983 99.1098 211.71 99.1136C211.263 99.1212 210.847 99.0417 210.46 98.875C210.074 98.7083 209.761 98.4508 209.523 98.1023C209.284 97.7538 209.165 97.3163 209.165 96.7898V88.1818ZM218.115 99.1761C217.27 99.1761 216.543 98.9848 215.933 98.6023C215.327 98.2159 214.861 97.6837 214.536 97.0057C214.21 96.3277 214.047 95.5511 214.047 94.6761C214.047 93.7898 214.214 93.0076 214.547 92.3295C214.88 91.6477 215.35 91.1155 215.956 90.733C216.562 90.3504 217.276 90.1591 218.098 90.1591C218.761 90.1591 219.352 90.2822 219.871 90.5284C220.39 90.7708 220.808 91.1117 221.126 91.5511C221.448 91.9905 221.64 92.5038 221.7 93.0909H220.047C219.956 92.6818 219.748 92.3295 219.422 92.0341C219.1 91.7386 218.668 91.5909 218.126 91.5909C217.653 91.5909 217.238 91.7159 216.882 91.9659C216.53 92.2121 216.255 92.5644 216.058 93.0227C215.861 93.4773 215.763 94.0152 215.763 94.6364C215.763 95.2727 215.859 95.822 216.053 96.2841C216.246 96.7462 216.518 97.1042 216.871 97.358C217.227 97.6117 217.645 97.7386 218.126 97.7386C218.448 97.7386 218.74 97.6799 219.001 97.5625C219.267 97.4413 219.488 97.2689 219.666 97.0455C219.848 96.822 219.975 96.553 220.047 96.2386H221.7C221.64 96.803 221.456 97.3068 221.149 97.75C220.842 98.1932 220.431 98.5417 219.916 98.7955C219.405 99.0492 218.804 99.1761 218.115 99.1761ZM225.216 93.8182V99H223.517V87.3636H225.193V91.6932H225.301C225.506 91.2235 225.818 90.8504 226.239 90.5739C226.659 90.2973 227.208 90.1591 227.886 90.1591C228.485 90.1591 229.008 90.2822 229.455 90.5284C229.905 90.7746 230.254 91.142 230.5 91.6307C230.75 92.1155 230.875 92.7216 230.875 93.4489V99H229.176V93.6534C229.176 93.0133 229.011 92.517 228.682 92.1648C228.352 91.8087 227.894 91.6307 227.307 91.6307C226.905 91.6307 226.545 91.7159 226.227 91.8864C225.913 92.0568 225.665 92.3068 225.483 92.6364C225.305 92.9621 225.216 93.3561 225.216 93.8182ZM233.142 99V90.2727H234.841V99H233.142ZM234 88.9261C233.705 88.9261 233.451 88.8277 233.239 88.6307C233.03 88.4299 232.926 88.1913 232.926 87.9148C232.926 87.6345 233.03 87.3958 233.239 87.1989C233.451 86.9981 233.705 86.8977 234 86.8977C234.295 86.8977 234.547 86.9981 234.756 87.1989C234.968 87.3958 235.074 87.6345 235.074 87.9148C235.074 88.1913 234.968 88.4299 234.756 88.6307C234.547 88.8277 234.295 88.9261 234 88.9261ZM238.825 93.8182V99H237.126V90.2727H238.757V91.6932H238.865C239.066 91.2311 239.38 90.8598 239.808 90.5795C240.24 90.2992 240.784 90.1591 241.439 90.1591C242.034 90.1591 242.554 90.2841 243.001 90.5341C243.448 90.7803 243.795 91.1477 244.041 91.6364C244.287 92.125 244.411 92.7292 244.411 93.4489V99H242.712V93.6534C242.712 93.0208 242.547 92.5265 242.217 92.1705C241.888 91.8106 241.435 91.6307 240.859 91.6307C240.465 91.6307 240.115 91.7159 239.808 91.8864C239.505 92.0568 239.265 92.3068 239.087 92.6364C238.912 92.9621 238.825 93.3561 238.825 93.8182ZM250.348 102.455C249.655 102.455 249.058 102.364 248.558 102.182C248.062 102 247.657 101.759 247.342 101.46C247.028 101.161 246.793 100.833 246.638 100.477L248.098 99.875C248.2 100.042 248.337 100.218 248.507 100.403C248.681 100.593 248.916 100.754 249.212 100.886C249.511 101.019 249.895 101.085 250.365 101.085C251.009 101.085 251.541 100.928 251.962 100.614C252.382 100.303 252.592 99.8068 252.592 99.125V97.4091H252.484C252.382 97.5947 252.234 97.8011 252.041 98.0284C251.852 98.2557 251.59 98.4527 251.257 98.6193C250.924 98.786 250.49 98.8693 249.956 98.8693C249.267 98.8693 248.645 98.7083 248.092 98.3864C247.543 98.0606 247.107 97.5814 246.786 96.9489C246.467 96.3125 246.308 95.5303 246.308 94.6023C246.308 93.6742 246.465 92.8788 246.78 92.2159C247.098 91.553 247.534 91.0455 248.087 90.6932C248.64 90.3371 249.267 90.1591 249.967 90.1591C250.509 90.1591 250.946 90.25 251.28 90.4318C251.613 90.6098 251.873 90.8182 252.058 91.0568C252.248 91.2955 252.393 91.5057 252.496 91.6875H252.621V90.2727H254.286V99.1932C254.286 99.9432 254.111 100.559 253.763 101.04C253.414 101.521 252.943 101.877 252.348 102.108C251.757 102.339 251.09 102.455 250.348 102.455ZM250.331 97.4602C250.82 97.4602 251.232 97.3466 251.57 97.1193C251.911 96.8883 252.168 96.5587 252.342 96.1307C252.52 95.6989 252.609 95.1818 252.609 94.5795C252.609 93.9924 252.522 93.4754 252.348 93.0284C252.174 92.5814 251.918 92.233 251.581 91.983C251.244 91.7292 250.827 91.6023 250.331 91.6023C249.82 91.6023 249.393 91.7348 249.053 92C248.712 92.2614 248.454 92.6174 248.28 93.0682C248.109 93.5189 248.024 94.0227 248.024 94.5795C248.024 95.1515 248.111 95.6534 248.286 96.0852C248.46 96.517 248.717 96.8542 249.058 97.0966C249.403 97.339 249.827 97.4602 250.331 97.4602ZM260.798 99V90.2727H262.497V99H260.798ZM261.656 88.9261C261.361 88.9261 261.107 88.8277 260.895 88.6307C260.687 88.4299 260.582 88.1913 260.582 87.9148C260.582 87.6345 260.687 87.3958 260.895 87.1989C261.107 86.9981 261.361 86.8977 261.656 86.8977C261.952 86.8977 262.204 86.9981 262.412 87.1989C262.624 87.3958 262.73 87.6345 262.73 87.9148C262.73 88.1913 262.624 88.4299 262.412 88.6307C262.204 88.8277 261.952 88.9261 261.656 88.9261ZM266.482 93.8182V99H264.783V90.2727H266.413V91.6932H266.521C266.722 91.2311 267.036 90.8598 267.464 90.5795C267.896 90.2992 268.44 90.1591 269.095 90.1591C269.69 90.1591 270.211 90.2841 270.658 90.5341C271.105 90.7803 271.451 91.1477 271.697 91.6364C271.944 92.125 272.067 92.7292 272.067 93.4489V99H270.368V93.6534C270.368 93.0208 270.203 92.5265 269.874 92.1705C269.544 91.8106 269.091 91.6307 268.516 91.6307C268.122 91.6307 267.771 91.7159 267.464 91.8864C267.161 92.0568 266.921 92.3068 266.743 92.6364C266.569 92.9621 266.482 93.3561 266.482 93.8182ZM278.419 90.2727V91.6364H273.652V90.2727H278.419ZM274.93 88.1818H276.629V96.4375C276.629 96.767 276.679 97.0152 276.777 97.1818C276.875 97.3447 277.002 97.4564 277.158 97.517C277.317 97.5739 277.489 97.6023 277.675 97.6023C277.811 97.6023 277.93 97.5928 278.033 97.5739C278.135 97.5549 278.214 97.5398 278.271 97.5284L278.578 98.9318C278.48 98.9697 278.339 99.0076 278.158 99.0455C277.976 99.0871 277.749 99.1098 277.476 99.1136C277.029 99.1212 276.612 99.0417 276.226 98.875C275.839 98.7083 275.527 98.4508 275.288 98.1023C275.05 97.7538 274.93 97.3163 274.93 96.7898V88.1818ZM283.881 99.1761C283.063 99.1761 282.348 98.9886 281.739 98.6136C281.129 98.2386 280.655 97.714 280.318 97.0398C279.981 96.3655 279.812 95.5777 279.812 94.6761C279.812 93.7708 279.981 92.9792 280.318 92.3011C280.655 91.6231 281.129 91.0966 281.739 90.7216C282.348 90.3466 283.063 90.1591 283.881 90.1591C284.699 90.1591 285.413 90.3466 286.023 90.7216C286.633 91.0966 287.106 91.6231 287.443 92.3011C287.78 92.9792 287.949 93.7708 287.949 94.6761C287.949 95.5777 287.78 96.3655 287.443 97.0398C287.106 97.714 286.633 98.2386 286.023 98.6136C285.413 98.9886 284.699 99.1761 283.881 99.1761ZM283.886 97.75C284.417 97.75 284.856 97.6098 285.205 97.3295C285.553 97.0492 285.811 96.6761 285.977 96.2102C286.148 95.7443 286.233 95.2311 286.233 94.6705C286.233 94.1136 286.148 93.6023 285.977 93.1364C285.811 92.6667 285.553 92.2898 285.205 92.0057C284.856 91.7216 284.417 91.5795 283.886 91.5795C283.352 91.5795 282.909 91.7216 282.557 92.0057C282.208 92.2898 281.949 92.6667 281.778 93.1364C281.612 93.6023 281.528 94.1136 281.528 94.6705C281.528 95.2311 281.612 95.7443 281.778 96.2102C281.949 96.6761 282.208 97.0492 282.557 97.3295C282.909 97.6098 283.352 97.75 283.886 97.75ZM297.756 99.1761C296.938 99.1761 296.223 98.9886 295.614 98.6136C295.004 98.2386 294.53 97.714 294.193 97.0398C293.856 96.3655 293.688 95.5777 293.688 94.6761C293.688 93.7708 293.856 92.9792 294.193 92.3011C294.53 91.6231 295.004 91.0966 295.614 90.7216C296.223 90.3466 296.938 90.1591 297.756 90.1591C298.574 90.1591 299.288 90.3466 299.898 90.7216C300.508 91.0966 300.981 91.6231 301.318 92.3011C301.655 92.9792 301.824 93.7708 301.824 94.6761C301.824 95.5777 301.655 96.3655 301.318 97.0398C300.981 97.714 300.508 98.2386 299.898 98.6136C299.288 98.9886 298.574 99.1761 297.756 99.1761ZM297.761 97.75C298.292 97.75 298.731 97.6098 299.08 97.3295C299.428 97.0492 299.686 96.6761 299.852 96.2102C300.023 95.7443 300.108 95.2311 300.108 94.6705C300.108 94.1136 300.023 93.6023 299.852 93.1364C299.686 92.6667 299.428 92.2898 299.08 92.0057C298.731 91.7216 298.292 91.5795 297.761 91.5795C297.227 91.5795 296.784 91.7216 296.432 92.0057C296.083 92.2898 295.824 92.6667 295.653 93.1364C295.487 93.6023 295.403 94.1136 295.403 94.6705C295.403 95.2311 295.487 95.7443 295.653 96.2102C295.824 96.6761 296.083 97.0492 296.432 97.3295C296.784 97.6098 297.227 97.75 297.761 97.75ZM305.419 93.8182V99H303.72V90.2727H305.351V91.6932H305.459C305.66 91.2311 305.974 90.8598 306.402 90.5795C306.834 90.2992 307.377 90.1591 308.033 90.1591C308.627 90.1591 309.148 90.2841 309.595 90.5341C310.042 90.7803 310.389 91.1477 310.635 91.6364C310.881 92.125 311.004 92.7292 311.004 93.4489V99H309.305V93.6534C309.305 93.0208 309.141 92.5265 308.811 92.1705C308.482 91.8106 308.029 91.6307 307.453 91.6307C307.059 91.6307 306.709 91.7159 306.402 91.8864C306.099 92.0568 305.858 92.3068 305.68 92.6364C305.506 92.9621 305.419 93.3561 305.419 93.8182ZM317.044 99.1761C316.184 99.1761 315.444 98.9924 314.822 98.625C314.205 98.2538 313.728 97.733 313.391 97.0625C313.057 96.3883 312.891 95.5985 312.891 94.6932C312.891 93.7992 313.057 93.0114 313.391 92.3295C313.728 91.6477 314.197 91.1155 314.8 90.733C315.406 90.3504 316.114 90.1591 316.925 90.1591C317.417 90.1591 317.894 90.2405 318.357 90.4034C318.819 90.5663 319.233 90.822 319.601 91.1705C319.968 91.5189 320.258 91.9716 320.47 92.5284C320.682 93.0814 320.788 93.7538 320.788 94.5455V95.1477H313.851V93.875H319.124C319.124 93.428 319.033 93.0322 318.851 92.6875C318.669 92.339 318.413 92.0644 318.084 91.8636C317.758 91.6629 317.375 91.5625 316.936 91.5625C316.459 91.5625 316.042 91.6799 315.686 91.9148C315.334 92.1458 315.061 92.4489 314.868 92.8239C314.679 93.1951 314.584 93.5985 314.584 94.0341V95.0284C314.584 95.6117 314.686 96.108 314.891 96.517C315.099 96.9261 315.389 97.2386 315.76 97.4545C316.131 97.6667 316.565 97.7727 317.061 97.7727C317.383 97.7727 317.677 97.7273 317.942 97.6364C318.207 97.5417 318.436 97.4015 318.629 97.2159C318.822 97.0303 318.97 96.8011 319.072 96.5284L320.68 96.8182C320.552 97.2917 320.321 97.7064 319.987 98.0625C319.658 98.4148 319.243 98.6894 318.743 98.8864C318.247 99.0795 317.68 99.1761 317.044 99.1761ZM36.6705 114.381V109.273H38.375V118H36.7045V116.489H36.6136C36.4129 116.955 36.0909 117.343 35.6477 117.653C35.2083 117.96 34.661 118.114 34.0057 118.114C33.4451 118.114 32.9489 117.991 32.517 117.744C32.089 117.494 31.7519 117.125 31.5057 116.636C31.2633 116.148 31.142 115.544 31.142 114.824V109.273H32.8409V114.619C32.8409 115.214 33.0057 115.687 33.3352 116.04C33.6648 116.392 34.0928 116.568 34.6193 116.568C34.9375 116.568 35.2538 116.489 35.5682 116.33C35.8864 116.17 36.1496 115.93 36.358 115.608C36.5701 115.286 36.6742 114.877 36.6705 114.381ZM42.3565 112.818V118H40.6577V109.273H42.2884V110.693H42.3963C42.5971 110.231 42.9115 109.86 43.3395 109.58C43.7713 109.299 44.3149 109.159 44.9702 109.159C45.5649 109.159 46.0857 109.284 46.5327 109.534C46.9796 109.78 47.3262 110.148 47.5724 110.636C47.8187 111.125 47.9418 111.729 47.9418 112.449V118H46.2429V112.653C46.2429 112.021 46.0781 111.527 45.7486 111.17C45.419 110.811 44.9664 110.631 44.3906 110.631C43.9967 110.631 43.6463 110.716 43.3395 110.886C43.0365 111.057 42.7959 111.307 42.6179 111.636C42.4437 111.962 42.3565 112.356 42.3565 112.818ZM50.2202 118V109.273H51.919V118H50.2202ZM51.0781 107.926C50.7827 107.926 50.5289 107.828 50.3168 107.631C50.1084 107.43 50.0043 107.191 50.0043 106.915C50.0043 106.634 50.1084 106.396 50.3168 106.199C50.5289 105.998 50.7827 105.898 51.0781 105.898C51.3736 105.898 51.6255 105.998 51.8338 106.199C52.0459 106.396 52.152 106.634 52.152 106.915C52.152 107.191 52.0459 107.43 51.8338 107.631C51.6255 107.828 51.3736 107.926 51.0781 107.926ZM58.358 109.273V110.636H53.4261V109.273H58.358ZM54.7784 118V108.261C54.7784 107.716 54.8977 107.263 55.1364 106.903C55.375 106.54 55.6913 106.269 56.0852 106.091C56.4792 105.909 56.9072 105.818 57.3693 105.818C57.7102 105.818 58.0019 105.847 58.2443 105.903C58.4867 105.956 58.6667 106.006 58.7841 106.051L58.3864 107.426C58.3068 107.403 58.2045 107.377 58.0795 107.347C57.9545 107.312 57.803 107.295 57.625 107.295C57.2121 107.295 56.9167 107.398 56.7386 107.602C56.5644 107.807 56.4773 108.102 56.4773 108.489V118H54.7784ZM60.1108 118V109.273H61.8097V118H60.1108ZM60.9688 107.926C60.6733 107.926 60.4195 107.828 60.2074 107.631C59.9991 107.43 59.8949 107.191 59.8949 106.915C59.8949 106.634 59.9991 106.396 60.2074 106.199C60.4195 105.998 60.6733 105.898 60.9688 105.898C61.2642 105.898 61.5161 105.998 61.7244 106.199C61.9366 106.396 62.0426 106.634 62.0426 106.915C62.0426 107.191 61.9366 107.43 61.7244 107.631C61.5161 107.828 61.2642 107.926 60.9688 107.926ZM67.8565 118.176C66.9967 118.176 66.2562 117.992 65.6349 117.625C65.0175 117.254 64.5402 116.733 64.2031 116.062C63.8698 115.388 63.7031 114.598 63.7031 113.693C63.7031 112.799 63.8698 112.011 64.2031 111.33C64.5402 110.648 65.0099 110.116 65.6122 109.733C66.2183 109.35 66.9266 109.159 67.7372 109.159C68.2296 109.159 68.7069 109.241 69.169 109.403C69.6312 109.566 70.0459 109.822 70.4134 110.17C70.7808 110.519 71.0705 110.972 71.2827 111.528C71.4948 112.081 71.6009 112.754 71.6009 113.545V114.148H64.6634V112.875H69.9361C69.9361 112.428 69.8452 112.032 69.6634 111.688C69.4815 111.339 69.2259 111.064 68.8963 110.864C68.5705 110.663 68.188 110.562 67.7486 110.562C67.2713 110.562 66.8546 110.68 66.4986 110.915C66.1463 111.146 65.8736 111.449 65.6804 111.824C65.491 112.195 65.3963 112.598 65.3963 113.034V114.028C65.3963 114.612 65.4986 115.108 65.7031 115.517C65.9115 115.926 66.2012 116.239 66.5724 116.455C66.9437 116.667 67.3774 116.773 67.8736 116.773C68.1955 116.773 68.4891 116.727 68.7543 116.636C69.0194 116.542 69.2486 116.402 69.4418 116.216C69.6349 116.03 69.7827 115.801 69.8849 115.528L71.4929 115.818C71.3641 116.292 71.133 116.706 70.7997 117.062C70.4702 117.415 70.0554 117.689 69.5554 117.886C69.0592 118.08 68.4929 118.176 67.8565 118.176ZM76.7528 118.17C76.0483 118.17 75.4195 117.991 74.8665 117.631C74.3172 117.267 73.8854 116.75 73.571 116.08C73.2604 115.405 73.1051 114.597 73.1051 113.653C73.1051 112.71 73.2623 111.903 73.5767 111.233C73.8949 110.562 74.3305 110.049 74.8835 109.693C75.4366 109.337 76.0634 109.159 76.7642 109.159C77.3059 109.159 77.7415 109.25 78.071 109.432C78.4044 109.61 78.6619 109.818 78.8438 110.057C79.0294 110.295 79.1733 110.506 79.2756 110.688H79.3778V106.364H81.0767V118H79.4176V116.642H79.2756C79.1733 116.828 79.0256 117.04 78.8324 117.278C78.643 117.517 78.3816 117.725 78.0483 117.903C77.715 118.081 77.2831 118.17 76.7528 118.17ZM77.1278 116.722C77.6165 116.722 78.0294 116.593 78.3665 116.335C78.7074 116.074 78.965 115.712 79.1392 115.25C79.3172 114.788 79.4062 114.25 79.4062 113.636C79.4062 113.03 79.3191 112.5 79.1449 112.045C78.9706 111.591 78.715 111.237 78.3778 110.983C78.0407 110.729 77.6241 110.602 77.1278 110.602C76.6165 110.602 76.1903 110.735 75.8494 111C75.5085 111.265 75.2509 111.627 75.0767 112.085C74.9063 112.544 74.821 113.061 74.821 113.636C74.821 114.22 74.9081 114.744 75.0824 115.21C75.2566 115.676 75.5142 116.045 75.8551 116.318C76.1998 116.587 76.6241 116.722 77.1278 116.722ZM90.2756 118.193C89.7225 118.193 89.2225 118.091 88.7756 117.886C88.3286 117.678 87.9744 117.377 87.7131 116.983C87.4555 116.589 87.3267 116.106 87.3267 115.534C87.3267 115.042 87.4214 114.636 87.6108 114.318C87.8002 114 88.0559 113.748 88.3778 113.562C88.6998 113.377 89.0597 113.237 89.4574 113.142C89.8551 113.047 90.2604 112.975 90.6733 112.926C91.196 112.866 91.6203 112.816 91.946 112.778C92.2718 112.737 92.5085 112.67 92.6562 112.58C92.804 112.489 92.8778 112.341 92.8778 112.136V112.097C92.8778 111.6 92.7377 111.216 92.4574 110.943C92.1809 110.67 91.768 110.534 91.2188 110.534C90.6468 110.534 90.196 110.661 89.8665 110.915C89.5407 111.165 89.3153 111.443 89.1903 111.75L87.5938 111.386C87.7831 110.856 88.0597 110.428 88.4233 110.102C88.7907 109.773 89.2131 109.534 89.6903 109.386C90.1676 109.235 90.6695 109.159 91.196 109.159C91.5445 109.159 91.9138 109.201 92.304 109.284C92.6979 109.364 93.0653 109.511 93.4062 109.727C93.7509 109.943 94.0331 110.252 94.2528 110.653C94.4725 111.051 94.5824 111.568 94.5824 112.205V118H92.9233V116.807H92.8551C92.7453 117.027 92.5805 117.242 92.3608 117.455C92.1411 117.667 91.8589 117.843 91.5142 117.983C91.1695 118.123 90.7566 118.193 90.2756 118.193ZM90.6449 116.83C91.1146 116.83 91.5161 116.737 91.8494 116.551C92.1866 116.366 92.4422 116.123 92.6165 115.824C92.7945 115.521 92.8835 115.197 92.8835 114.852V113.727C92.8229 113.788 92.7055 113.845 92.5312 113.898C92.3608 113.947 92.1657 113.991 91.946 114.028C91.7263 114.062 91.5123 114.095 91.304 114.125C91.0956 114.152 90.9214 114.174 90.7812 114.193C90.4517 114.235 90.1506 114.305 89.8778 114.403C89.6089 114.502 89.393 114.644 89.2301 114.83C89.071 115.011 88.9915 115.254 88.9915 115.557C88.9915 115.977 89.1468 116.295 89.4574 116.511C89.768 116.723 90.1638 116.83 90.6449 116.83ZM96.8452 121.273V109.273H98.5043V110.688H98.6463C98.7448 110.506 98.8868 110.295 99.0724 110.057C99.258 109.818 99.5156 109.61 99.8452 109.432C100.175 109.25 100.61 109.159 101.152 109.159C101.857 109.159 102.485 109.337 103.038 109.693C103.591 110.049 104.025 110.562 104.339 111.233C104.658 111.903 104.817 112.71 104.817 113.653C104.817 114.597 104.66 115.405 104.345 116.08C104.031 116.75 103.599 117.267 103.05 117.631C102.5 117.991 101.874 118.17 101.169 118.17C100.639 118.17 100.205 118.081 99.8679 117.903C99.5346 117.725 99.2732 117.517 99.0838 117.278C98.8944 117.04 98.7486 116.828 98.6463 116.642H98.544V121.273H96.8452ZM98.5099 113.636C98.5099 114.25 98.599 114.788 98.777 115.25C98.955 115.712 99.2126 116.074 99.5497 116.335C99.8868 116.593 100.3 116.722 100.788 116.722C101.296 116.722 101.72 116.587 102.061 116.318C102.402 116.045 102.66 115.676 102.834 115.21C103.012 114.744 103.101 114.22 103.101 113.636C103.101 113.061 103.014 112.544 102.839 112.085C102.669 111.627 102.411 111.265 102.067 111C101.726 110.735 101.3 110.602 100.788 110.602C100.296 110.602 99.8793 110.729 99.5384 110.983C99.2012 111.237 98.9455 111.591 98.7713 112.045C98.5971 112.5 98.5099 113.03 98.5099 113.636ZM106.72 121.273V109.273H108.379V110.688H108.521C108.62 110.506 108.762 110.295 108.947 110.057C109.133 109.818 109.391 109.61 109.72 109.432C110.05 109.25 110.485 109.159 111.027 109.159C111.732 109.159 112.36 109.337 112.913 109.693C113.466 110.049 113.9 110.562 114.214 111.233C114.533 111.903 114.692 112.71 114.692 113.653C114.692 114.597 114.535 115.405 114.22 116.08C113.906 116.75 113.474 117.267 112.925 117.631C112.375 117.991 111.749 118.17 111.044 118.17C110.514 118.17 110.08 118.081 109.743 117.903C109.41 117.725 109.148 117.517 108.959 117.278C108.769 117.04 108.624 116.828 108.521 116.642H108.419V121.273H106.72ZM108.385 113.636C108.385 114.25 108.474 114.788 108.652 115.25C108.83 115.712 109.088 116.074 109.425 116.335C109.762 116.593 110.175 116.722 110.663 116.722C111.171 116.722 111.595 116.587 111.936 116.318C112.277 116.045 112.535 115.676 112.709 115.21C112.887 114.744 112.976 114.22 112.976 113.636C112.976 113.061 112.889 112.544 112.714 112.085C112.544 111.627 112.286 111.265 111.942 111C111.601 110.735 111.175 110.602 110.663 110.602C110.171 110.602 109.754 110.729 109.413 110.983C109.076 111.237 108.821 111.591 108.646 112.045C108.472 112.5 108.385 113.03 108.385 113.636ZM117.714 118.108C117.404 118.108 117.137 117.998 116.913 117.778C116.69 117.555 116.578 117.286 116.578 116.972C116.578 116.661 116.69 116.396 116.913 116.176C117.137 115.953 117.404 115.841 117.714 115.841C118.025 115.841 118.292 115.953 118.516 116.176C118.739 116.396 118.851 116.661 118.851 116.972C118.851 117.18 118.798 117.371 118.692 117.545C118.589 117.716 118.453 117.852 118.283 117.955C118.112 118.057 117.923 118.108 117.714 118.108ZM121.446 106.364V107.455C121.446 107.777 121.385 108.116 121.264 108.472C121.147 108.824 120.98 109.163 120.764 109.489C120.548 109.814 120.295 110.095 120.003 110.33L119.162 109.727C119.385 109.402 119.579 109.055 119.741 108.688C119.908 108.32 119.991 107.915 119.991 107.472V106.364H121.446ZM124.338 106.364V107.455C124.338 107.777 124.277 108.116 124.156 108.472C124.039 108.824 123.872 109.163 123.656 109.489C123.44 109.814 123.187 110.095 122.895 110.33L122.054 109.727C122.277 109.402 122.471 109.055 122.634 108.688C122.8 108.32 122.884 107.915 122.884 107.472V106.364H124.338Z" fill="#1D2129"/>
</g>
<defs>
<filter id="filter0_dd_1_356" x="0" y="0" width="373" height="156" filterUnits="userSpaceOnUse" color-interpolation-filters="sRGB">
<feFlood flood-opacity="0" result="BackgroundImageFix"/>
<feColorMatrix in="SourceAlpha" type="matrix" values="0 0 0 0 0 0 0 0 0 0 0 0 0 0 0 0 0 0 127 0" result="hardAlpha"/>
<feOffset dy="1"/>
<feGaussianBlur stdDeviation="0.5"/>
<feComposite in2="hardAlpha" operator="out"/>
<feColorMatrix type="matrix" values="0 0 0 0 0 0 0 0 0 0 0 0 0 0 0 0 0 0 0.04 0"/>
<feBlend mode="normal" in2="BackgroundImageFix" result="effect1_dropShadow_1_356"/>
<feColorMatrix in="SourceAlpha" type="matrix" values="0 0 0 0 0 0 0 0 0 0 0 0 0 0 0 0 0 0 127 0" result="hardAlpha"/>
<feOffset dy="4"/>
<feGaussianBlur stdDeviation="5"/>
<feComposite in2="hardAlpha" operator="out"/>
<feColorMatrix type="matrix" values="0 0 0 0 0 0 0 0 0 0 0 0 0 0 0 0 0 0 0.04 0"/>
<feBlend mode="normal" in2="effect1_dropShadow_1_356" result="effect2_dropShadow_1_356"/>
<feBlend mode="normal" in="SourceGraphic" in2="effect2_dropShadow_1_356" result="shape"/>
</filter>
</defs>
</svg>
